<svg width="26" height="26" viewBox="0 0 26 26" fill="none" xmlns="http://www.w3.org/2000/svg">
<g clip-path="url(#clip0_25_461)">
<path opacity="0.2" d="M18.7466 8.87502C19.1433 9.27174 19.1433 9.91484 18.7466 10.3114L11.9332 17.125C11.5365 17.5215 10.8936 17.5215 10.4968 17.125L7.25339 13.8813C6.85666 13.4848 6.85666 12.8417 7.25339 12.4452C7.64992 12.0484 8.29301 12.0484 8.68954 12.4452L11.2149 14.9706L17.3103 8.87502C17.707 8.47849 18.3501 8.47849 18.7466 8.87502ZM26 13C26 20.1857 20.1848 26 13 26C5.81425 26 0 20.1848 0 13C0 5.81425 5.81525 0 13 0C20.1857 0 26 5.81525 26 13ZM23.9688 13C23.9688 6.937 19.0622 2.03125 13 2.03125C6.937 2.03125 2.03125 6.93779 2.03125 13C2.03125 19.063 6.93779 23.9688 13 23.9688C19.063 23.9688 23.9688 19.0622 23.9688 13Z" fill="#9EA2A7"/>
</g>
<defs>
<clipPath id="clip0_25_461">
<rect width="26" height="26" fill="white"/>
</clipPath>
</defs>
</svg>
