<svg width="26" height="26" viewBox="0 0 26 26" fill="none" xmlns="http://www.w3.org/2000/svg">
<g clip-path="url(#clip0_25_441)">
<path d="M13 0C5.83151 0 0 5.83151 0 13C0 20.1685 5.83151 26 13 26C20.1685 26 26 20.1685 26 13C26 5.83151 20.1685 0 13 0ZM19.5889 10.2451L12.5471 17.2867C12.3359 17.4979 12.0586 17.6042 11.7812 17.6042C11.5039 17.6042 11.2266 17.4979 11.0154 17.2867L7.4946 13.7659C7.07089 13.3424 7.07089 12.6576 7.4946 12.2341C7.91811 11.8104 8.60266 11.8104 9.02637 12.2341L11.7812 14.989L18.0571 8.71335C18.4806 8.28964 19.1652 8.28964 19.5889 8.71335C20.0124 9.13686 20.0124 9.82141 19.5889 10.2451Z" fill="#0D1722"/>
</g>
<defs>
<clipPath id="clip0_25_441">
<rect width="26" height="26" fill="white"/>
</clipPath>
</defs>
</svg>
