<svg width="90" height="61" viewBox="0 0 90 61" fill="none" xmlns="http://www.w3.org/2000/svg">
<rect x="0.5" y="0.5" width="89" height="60" rx="5.5" stroke="#9EA2A7" stroke-opacity="0.2"/>
<path fill-rule="evenodd" clip-rule="evenodd" d="M37.703 34.3112C35.1446 36.2308 31.4355 37.2516 28.2414 37.2516C23.7651 37.2516 19.734 35.5693 16.6834 32.7689C16.4441 32.5488 16.6575 32.2485 16.9453 32.4188C20.2364 34.3659 24.3067 35.5386 28.51 35.5386C31.3457 35.5386 34.463 34.9401 37.3312 33.7032C37.7638 33.5169 38.1266 33.993 37.703 34.3112Z" fill="#F79C34"/>
<path fill-rule="evenodd" clip-rule="evenodd" d="M38.7678 33.075C38.4404 32.6492 36.6048 32.8732 35.78 32.9737C35.5302 33.0044 35.4913 32.7823 35.7165 32.6216C37.181 31.5757 39.5809 31.8776 39.8598 32.2281C40.1406 32.581 39.7856 35.0273 38.4137 36.1944C38.2023 36.3738 38.0015 36.2781 38.0952 36.0413C38.4043 35.257 39.0953 33.5017 38.7678 33.075Z" fill="#F79C34"/>
<path fill-rule="evenodd" clip-rule="evenodd" d="M35.838 25.2337V24.2177C35.8388 24.063 35.9533 23.9601 36.0914 23.9605L40.5712 23.9601C40.7144 23.9601 40.8297 24.0658 40.8297 24.2165V25.0878C40.8281 25.2341 40.7069 25.4247 40.4924 25.7274L38.1717 29.096C39.033 29.0756 39.9441 29.2068 40.7269 29.6538C40.9034 29.7547 40.9509 29.9042 40.9646 30.0506V31.1348C40.9646 31.2843 40.8038 31.4569 40.6344 31.3672C39.2557 30.6327 37.4261 30.5526 35.9012 31.376C35.7455 31.4605 35.5827 31.2899 35.5827 31.1403V30.1096C35.5827 29.9449 35.5858 29.6626 35.7494 29.4114L38.4376 25.4901L36.0969 25.4897C35.9537 25.4897 35.8388 25.386 35.838 25.2337ZM19.497 31.5806H18.1341C18.0043 31.5722 17.9007 31.4733 17.8901 31.3465L17.8913 24.2349C17.8913 24.0929 18.009 23.9793 18.1545 23.9793L19.4237 23.9789C19.5562 23.9856 19.6629 24.0877 19.6712 24.2177V25.146H19.697C20.0277 24.248 20.6509 23.8289 21.4906 23.8289C22.3429 23.8289 22.8775 24.248 23.2591 25.146C23.5897 24.248 24.3404 23.8289 25.1417 23.8289C25.7143 23.8289 26.3375 24.0686 26.7192 24.6073C27.1518 25.2062 27.0631 26.0739 27.0631 26.8371L27.0616 31.325C27.0616 31.4665 26.9443 31.5806 26.7988 31.5806H25.4378C25.3005 31.5718 25.1931 31.4617 25.1931 31.3254L25.1927 27.5552C25.1927 27.2561 25.2182 26.5081 25.1542 26.2238C25.0527 25.7445 24.7475 25.6097 24.3534 25.6097C24.0223 25.6097 23.6788 25.8342 23.5387 26.1931C23.3987 26.5528 23.4117 27.1509 23.4117 27.5552V31.325C23.4117 31.4665 23.294 31.5806 23.1489 31.5806H21.7875C21.6506 31.5718 21.5428 31.4617 21.5428 31.3254L21.5412 27.5552C21.5412 26.7621 21.6687 25.5954 20.7019 25.5954C19.7222 25.5954 19.7606 26.7322 19.7606 27.5552L19.7598 31.325C19.7598 31.4665 19.6421 31.5806 19.497 31.5806ZM44.6984 25.2808C43.6936 25.2808 43.63 26.672 43.63 27.5401C43.63 28.4081 43.6175 30.2639 44.6863 30.2639C45.7421 30.2639 45.7931 28.7674 45.7931 27.8547C45.7931 27.2562 45.7672 26.5376 45.5891 25.969C45.4366 25.475 45.131 25.2808 44.6984 25.2808ZM44.6863 23.8289C46.7089 23.8289 47.8028 25.5954 47.8028 27.8399C47.8028 30.0091 46.5944 31.7305 44.6863 31.7305C42.7013 31.7305 41.62 29.9644 41.62 27.7649C41.62 25.5499 42.7138 23.8289 44.6863 23.8289ZM50.4262 31.5806H49.068C48.9319 31.5718 48.8237 31.4617 48.8237 31.3254L48.8213 24.2113C48.8331 24.0809 48.946 23.9793 49.0833 23.9793L50.3474 23.9789C50.4666 23.9852 50.5647 24.0674 50.5898 24.1778V25.2656H50.6153C50.9973 24.2927 51.5311 23.8289 52.4724 23.8289C53.0831 23.8289 53.6812 24.0534 54.0628 24.6671C54.4189 25.2357 54.4189 26.1931 54.4189 26.8817V31.3569C54.404 31.4829 54.2926 31.5806 54.1577 31.5806H52.7917C52.6654 31.5726 52.5638 31.4781 52.5489 31.3569V27.4958C52.5489 26.7174 52.6383 25.5798 51.6966 25.5798C51.366 25.5798 51.0604 25.8043 50.9079 26.1484C50.7169 26.5827 50.6914 27.0165 50.6914 27.4958V31.325C50.689 31.4665 50.5714 31.5806 50.4262 31.5806ZM33.6405 31.563C33.5507 31.6451 33.4208 31.6507 33.3189 31.5953C32.8663 31.2129 32.7851 31.0363 32.5376 30.6718C31.7896 31.4466 31.2598 31.679 30.2906 31.679C29.1434 31.679 28.2507 30.9589 28.2507 29.5194C28.2507 28.3946 28.8504 27.6298 29.7043 27.255C30.4436 26.9248 31.4763 26.865 32.267 26.7749V26.595C32.267 26.2645 32.2925 25.8753 32.1011 25.5902C31.9352 25.335 31.6167 25.2301 31.3362 25.2301C30.8162 25.2301 30.3545 25.5009 30.2408 26.0619C30.2169 26.1867 30.1275 26.3107 30.0043 26.3171L28.683 26.1716C28.5716 26.1456 28.4476 26.0547 28.4794 25.8817C28.7794 24.2751 30.1906 23.7743 31.4731 23.7607H31.5743C32.2309 23.7691 33.0694 23.9521 33.5801 24.4502C34.2433 25.0802 34.179 25.92 34.179 26.8351V28.9935C34.179 29.643 34.4445 29.9277 34.6936 30.2774C34.781 30.4039 34.8002 30.5534 34.6892 30.6459C34.4108 30.8831 33.9162 31.3198 33.6444 31.5662L33.6405 31.563ZM32.267 28.1848C32.267 28.7247 32.2795 29.1745 32.012 29.6546C31.7951 30.0442 31.4508 30.2842 31.0684 30.2842C30.5459 30.2842 30.24 29.8795 30.24 29.2794C30.24 28.0991 31.2809 27.8846 32.267 27.8846V28.1848ZM15.775 31.563C15.6847 31.6451 15.5545 31.6507 15.453 31.5953C15 31.2129 14.9188 31.0363 14.6717 30.6718C13.9233 31.4466 13.3939 31.679 12.4247 31.679C11.2775 31.679 10.3848 30.9589 10.3848 29.5194C10.3848 28.3946 10.9837 27.6298 11.8384 27.255C12.5777 26.9248 13.6104 26.865 14.4007 26.7749V26.595C14.4007 26.2645 14.4265 25.8753 14.2351 25.5902C14.0692 25.335 13.7504 25.2301 13.4703 25.2301C12.9503 25.2301 12.4879 25.5009 12.3749 26.0619C12.3514 26.1867 12.2615 26.3107 12.138 26.3171L10.817 26.1716C10.7053 26.1456 10.5813 26.0547 10.6135 25.8817C10.9127 24.2751 12.3243 23.7743 13.6072 23.7607H13.7084C14.365 23.7691 15.2035 23.9521 15.7142 24.4502C16.377 25.0802 16.3131 25.92 16.3131 26.8351V28.9935C16.3131 29.643 16.5786 29.9277 16.8276 30.2774C16.9143 30.4039 16.9343 30.5534 16.8233 30.6459C16.5449 30.8831 16.0499 31.3198 15.7781 31.5662L15.775 31.563ZM14.4007 28.1848C14.4007 28.7247 14.4136 29.1745 14.1457 29.6546C13.9292 30.0442 13.5849 30.2842 13.2021 30.2842C12.6796 30.2842 12.3737 29.8795 12.3737 29.2794C12.3737 28.0991 13.415 27.8846 14.4007 27.8846V28.1848ZM73.0493 34.1317V33.6094C73.0493 33.4606 73.121 33.3582 73.2736 33.3673C73.5583 33.4084 73.9611 33.4495 74.2471 33.3897C74.6205 33.3107 74.8883 33.0416 75.0468 32.6727C75.27 32.1535 75.4178 31.7349 75.5112 31.4601L72.6759 24.3194C72.628 24.1982 72.6139 23.9733 72.852 23.9733H73.8431C74.0321 23.9733 74.109 24.0953 74.1514 24.2149L76.2069 30.0151L78.1692 24.2149C78.2092 24.0961 78.2896 23.9733 78.477 23.9733H79.4117C79.6482 23.9733 79.6348 24.1978 79.5878 24.3194L76.7752 31.683C76.4113 32.6631 75.9265 34.2242 74.8346 34.4954C74.2871 34.6409 73.5964 34.5883 73.1909 34.4156C73.0885 34.3634 73.0493 34.2238 73.0493 34.1317ZM71.7271 31.1455C71.7271 31.2783 71.6201 31.3872 71.4887 31.3872H70.7897C70.6387 31.3872 70.5356 31.2763 70.5164 31.1455L70.4462 30.6618C70.125 30.9382 69.7308 31.181 69.3033 31.3501C68.4812 31.6747 67.5336 31.7285 66.7304 31.2269C66.1495 30.8644 65.8412 30.1558 65.8412 29.4249C65.8412 28.8595 66.0126 28.2989 66.3927 27.8918C66.8998 27.3355 67.6348 27.0624 68.5224 27.0624C69.0585 27.0624 69.8257 27.1266 70.3838 27.312V26.3386C70.3838 25.3489 69.974 24.9207 68.8934 24.9207C68.0674 24.9207 67.4356 25.0475 66.5562 25.3254C66.4154 25.3302 66.3331 25.2213 66.3331 25.0886V24.5335C66.3331 24.4003 66.4449 24.2715 66.566 24.2325C67.194 23.9541 68.0835 23.7807 69.0291 23.7488C70.2618 23.7488 71.7271 24.0315 71.7271 25.959V31.1455ZM70.3838 29.7244V28.2558C69.9147 28.1254 69.1385 28.0712 68.8381 28.0712C68.3635 28.0712 67.8439 28.1852 67.5725 28.4823C67.3697 28.7 67.2779 29.0126 67.2779 29.3149C67.2779 29.7056 67.4109 30.0976 67.7215 30.2914C68.0823 30.5406 68.642 30.5103 69.168 30.3584C69.6735 30.2125 70.1481 29.9545 70.3838 29.7244ZM61.4218 24.9426C62.9726 24.9426 63.395 26.1823 63.395 27.6019C63.4037 28.5589 63.2307 29.4122 62.7432 29.9006C62.3784 30.2663 61.9709 30.366 61.3575 30.366C60.8116 30.366 60.0934 30.0765 59.5569 29.6733V25.6145C60.1154 25.1783 60.828 24.9426 61.4218 24.9426ZM59.3192 34.3865H58.383C58.252 34.3865 58.1449 34.2777 58.1449 34.1449V24.2277C58.1449 24.0949 58.252 23.986 58.383 23.986H59.0996C59.2502 23.986 59.3533 24.0969 59.3725 24.2277L59.4478 24.7472C60.1189 24.1415 60.9829 23.7532 61.8062 23.7532C64.112 23.7532 64.8701 25.6847 64.8701 27.6932C64.8701 29.842 63.7104 31.5686 61.7489 31.5686C60.9229 31.5686 60.1507 31.2588 59.5569 30.7205V34.1449C59.5569 34.2777 59.4498 34.3865 59.3192 34.3865Z" fill="#333E47"/>
</svg>
