<svg width="90" height="66" viewBox="0 0 90 66" fill="none" xmlns="http://www.w3.org/2000/svg">
<path d="M84.8068 65.7686H5.19228C2.3245 65.7686 0 63.4441 0 60.5763V5.19228C0 2.3245 2.3245 0 5.19228 0H84.8068C87.6745 0 89.999 2.3245 89.999 5.19228V60.5763C89.999 63.4441 87.6747 65.7686 84.8068 65.7686Z" fill="#9EA2A7"/>
<path d="M0.000854492 22.4999H90.0001V8.65381H0.000854492V22.4999Z" fill="#BCBEC0"/>
<path d="M53.6541 55.384H81.3462V39.866H53.6541V55.384Z" fill="#BCBEC0"/>
<path d="M20.769 34.6151H6.92296C5.96763 34.6151 5.1922 33.8414 5.1922 32.8843C5.1922 31.9272 5.96763 31.1536 6.92296 31.1536H20.769C21.7244 31.1536 22.4998 31.9272 22.4998 32.8843C22.4998 33.8414 21.7244 34.6151 20.769 34.6151Z" fill="#BCBEC0"/>
<path d="M41.5378 34.6151H27.6917C26.7364 34.6151 25.9609 33.8414 25.9609 32.8843C25.9609 31.9272 26.7364 31.1536 27.6917 31.1536H41.5378C42.4931 31.1536 43.2685 31.9272 43.2685 32.8843C43.2685 33.8414 42.4931 34.6151 41.5378 34.6151Z" fill="#BCBEC0"/>
<path d="M29.4226 41.5379H6.92296C5.96763 41.5379 5.1922 40.7643 5.1922 39.8072C5.1922 38.8501 5.96763 38.0764 6.92296 38.0764H29.4228C30.3781 38.0764 31.1536 38.8501 31.1536 39.8072C31.1534 40.7643 30.3781 41.5379 29.4226 41.5379Z" fill="#BCBEC0"/>
<path d="M41.5378 41.5379H36.3455C35.3902 41.5379 34.6147 40.7643 34.6147 39.8072C34.6147 38.8501 35.3902 38.0764 36.3455 38.0764H41.5378C42.4931 38.0764 43.2685 38.8501 43.2685 39.8072C43.2685 40.7643 42.4931 41.5379 41.5378 41.5379Z" fill="#BCBEC0"/>
</svg>
