<svg width="42" height="42" viewBox="0 0 42 42" fill="none" xmlns="http://www.w3.org/2000/svg">
<rect x="1" y="1" width="40" height="40" rx="14" fill="white" stroke="#9EA2A7" stroke-opacity="0.5"/>
<g clip-path="url(#clip0_30_305)">
<path d="M29.4893 12.5112C24.8071 7.82994 17.1926 7.82994 12.5104 12.5112C7.8302 17.1924 7.8302 24.8089 12.5104 29.4901C14.8515 31.8302 17.9259 32.9997 21.0004 32.9997C24.0748 32.9997 27.1482 31.8302 29.4893 29.4901C34.1705 24.8089 34.1705 17.1924 29.4893 12.5112ZM25.9517 24.5378C26.3428 24.929 26.3428 25.5613 25.9517 25.9524C25.7566 26.1475 25.5005 26.2456 25.2443 26.2456C24.9882 26.2456 24.7321 26.1475 24.537 25.9524L21.0003 22.4148L17.4647 25.9514C17.2686 26.1465 17.0124 26.2446 16.7573 26.2446C16.5012 26.2446 16.2451 26.1465 16.05 25.9514C15.6588 25.5602 15.6588 24.9269 16.05 24.5368L19.5856 21.0001L16.049 17.4635C15.6578 17.0723 15.6578 16.439 16.049 16.0488C16.4392 15.6577 17.0725 15.6577 17.4636 16.0488L21.0003 19.5855L24.5369 16.0488C24.9281 15.6577 25.5604 15.6577 25.9516 16.0488C26.3427 16.439 26.3427 17.0723 25.9516 17.4635L22.4149 21.0001L25.9517 24.5378Z" fill="#0D1722"/>
</g>
<defs>
<clipPath id="clip0_30_305">
<rect width="24" height="24" fill="white" transform="translate(9 9)"/>
</clipPath>
</defs>
</svg>
