<svg width="42" height="42" viewBox="0 0 42 42" fill="none" xmlns="http://www.w3.org/2000/svg">
<rect x="1" y="1" width="40" height="40" rx="14" fill="white" stroke="#9EA2A7" stroke-opacity="0.5"/>
<path d="M28.0781 23.1094C27.6902 23.1094 27.375 23.4246 27.375 23.8125C27.375 24.2004 27.6902 24.5156 28.0781 24.5156C28.4661 24.5156 28.7812 24.2004 28.7812 23.8125C28.7812 23.4246 28.4661 23.1094 28.0781 23.1094Z" fill="#0D1722"/>
<path d="M32.2969 13.2656H16.0896V15.375C16.0896 15.7636 15.7751 16.0781 15.3865 16.0781C14.9978 16.0781 14.6834 15.7636 14.6834 15.375V13.2656H9.70312C9.31448 13.2656 9 13.5801 9 13.9688V18.1875C9 18.5761 9.31448 18.8906 9.70312 18.8906C10.8663 18.8906 11.8125 19.8368 11.8125 21C11.8125 22.1632 10.8663 23.1094 9.70312 23.1094C9.31448 23.1094 9 23.4239 9 23.8125V28.0312C9 28.4199 9.31448 28.7344 9.70312 28.7344H14.625V26.625C14.625 26.2364 14.9395 25.9219 15.3281 25.9219C15.7168 25.9219 16.0312 26.2364 16.0312 26.625V28.7344H32.2969C32.6855 28.7344 33 28.4199 33 28.0312V13.9688C33 13.5801 32.6855 13.2656 32.2969 13.2656ZM16.0312 23.8125C16.0312 24.2011 15.7168 24.5156 15.3281 24.5156C14.9395 24.5156 14.625 24.2011 14.625 23.8125V22.4062C14.625 22.0176 14.9395 21.7031 15.3281 21.7031C15.7168 21.7031 16.0312 22.0176 16.0312 22.4062V23.8125ZM16.0312 19.5938C16.0312 19.9824 15.7168 20.2969 15.3281 20.2969C14.9395 20.2969 14.625 19.9824 14.625 19.5938V18.1875C14.625 17.7989 14.9395 17.4844 15.3281 17.4844C15.7168 17.4844 16.0312 17.7989 16.0312 18.1875V19.5938ZM20.3438 18.1875C20.3438 17.0243 21.29 16.0781 22.4531 16.0781C23.6163 16.0781 24.5625 17.0243 24.5625 18.1875C24.5625 19.3507 23.6163 20.2969 22.4531 20.2969C21.29 20.2969 20.3438 19.3507 20.3438 18.1875ZM22.0631 25.8038C21.7397 25.5881 21.6525 25.1521 21.8681 24.8287L27.4931 16.3912C27.708 16.0678 28.1441 15.9813 28.4682 16.1962C28.7916 16.4118 28.8788 16.8478 28.6632 17.1713L23.0382 25.6088C22.8261 25.9274 22.3917 26.0215 22.0631 25.8038ZM28.0781 25.9219C26.915 25.9219 25.9688 24.9757 25.9688 23.8125C25.9688 22.6493 26.915 21.7031 28.0781 21.7031C29.2413 21.7031 30.1875 22.6493 30.1875 23.8125C30.1875 24.9757 29.2413 25.9219 28.0781 25.9219Z" fill="#0D1722"/>
<path d="M22.4531 17.4844C22.0652 17.4844 21.75 17.7996 21.75 18.1875C21.75 18.5754 22.0652 18.8906 22.4531 18.8906C22.8411 18.8906 23.1562 18.5754 23.1562 18.1875C23.1562 17.7996 22.8411 17.4844 22.4531 17.4844Z" fill="#0D1722"/>
</svg>
