<svg width="42" height="42" viewBox="0 0 42 42" fill="none" xmlns="http://www.w3.org/2000/svg">
<rect x="1" y="1" width="40" height="40" rx="14" fill="white" stroke="#9EA2A7" stroke-opacity="0.5"/>
<g clip-path="url(#clip0_30_314)">
<path d="M29 13H13C11.89 13 11.01 13.89 11.01 15L11 27C11 28.11 11.89 29 13 29H29C30.11 29 31 28.11 31 27V15C31 13.89 30.11 13 29 13ZM28 27H14C13.45 27 13 26.55 13 26V21H29V26C29 26.55 28.55 27 28 27ZM29 17H13V16C13 15.45 13.45 15 14 15H28C28.55 15 29 15.45 29 16V17Z" fill="#0D1722"/>
</g>
<defs>
<clipPath id="clip0_30_314">
<rect width="24" height="24" fill="white" transform="translate(9 9)"/>
</clipPath>
</defs>
</svg>
