<svg width="90" height="61" viewBox="0 0 90 61" fill="none" xmlns="http://www.w3.org/2000/svg">
<rect x="0.5" y="0.5" width="89" height="60" rx="5.5" stroke="#9EA2A7" stroke-opacity="0.2"/>
<path d="M64.3781 24.2187C64.6594 23.9949 64.8 23.8829 64.9406 23.771C66.8953 22.1202 69.3985 22.3021 71.0719 24.2607C71.2406 24.4565 71.325 24.4705 71.4938 24.3026C71.6063 24.1767 71.7328 24.0788 71.8453 23.9529C73.1531 22.6798 74.8828 22.3021 76.5 23.0156C78.2016 23.771 79.1156 25.1 79.1297 26.9607C79.1578 30.9757 79.1438 34.9767 79.1438 38.9917C79.1438 40.4187 78.2578 41.314 76.8375 41.314C76.275 41.314 75.7125 41.2721 75.15 41.328C74.5735 41.384 74.4047 41.2021 74.4047 40.6006C74.4328 36.6835 74.4188 32.7664 74.4188 28.8493C74.4188 28.6814 74.4188 28.5275 74.4188 28.3596C74.4047 27.4503 74.0391 27.0726 73.1672 27.0306C72.3797 26.9886 71.8313 27.4643 71.7469 28.2617C71.7328 28.4436 71.7469 28.6394 71.7469 28.8213C71.7469 32.2068 71.7469 35.5783 71.7469 38.9638C71.7469 40.4467 70.8891 41.314 69.3985 41.3C68.6391 41.286 67.6125 41.6358 67.1766 41.1462C66.7969 40.7265 67.05 39.7332 67.05 38.9917C67.05 35.5223 67.05 32.0389 67.05 28.5695C67.05 27.3384 66.2485 26.7088 65.2078 27.1285C64.561 27.3943 64.35 27.912 64.35 28.5835C64.3641 31.8291 64.35 35.0607 64.35 38.3063C64.35 38.5581 64.35 38.8239 64.35 39.0757C64.3078 40.4327 63.436 41.286 62.086 41.3C61.5234 41.314 60.9609 41.2581 60.3984 41.314C59.7938 41.37 59.6109 41.2021 59.625 40.5586C59.6531 35.0607 59.6391 29.5627 59.6391 24.0508C59.6391 23.813 59.6531 23.5892 59.6391 23.3513C59.6109 23.0436 59.7375 22.9456 60.0469 22.9456C61.3406 22.9596 62.6203 22.9596 63.9141 22.9456C64.2375 22.9456 64.3922 23.0296 64.3641 23.3793C64.336 23.6311 64.3641 23.855 64.3781 24.2187Z" fill="#02B9EF"/>
<path d="M34.5656 31.8012C34.5656 33.7177 34.5656 35.6203 34.5656 37.5369C34.5516 40.0271 33.2438 41.3141 30.7406 41.3281C29.6438 41.3281 28.5328 41.3421 27.436 41.3281C25.2141 41.3001 23.5828 39.8312 23.4703 37.6209C23.386 36.04 23.3719 34.4452 23.4563 32.8644C23.5688 30.5981 25.3125 29.0032 27.6188 28.9753C28.2235 28.9613 28.8422 28.9753 29.4469 28.9753C30.0375 28.9613 30.2625 28.6255 30.2485 28.0659C30.2485 27.5063 29.9953 27.2545 29.4328 27.2825C28.8 27.2965 28.1672 27.2965 27.5344 27.2825C25.9875 27.2545 25.1297 26.4152 25.1438 24.9043C25.1438 24.2887 24.8625 23.4633 25.2703 23.0996C25.6219 22.7918 26.4235 22.9877 27.0281 22.9877C28.6031 22.9737 30.1641 22.9877 31.7391 22.9877C33.4125 22.9877 34.5516 24.1209 34.5656 25.7996C34.5797 27.7861 34.5656 29.8006 34.5656 31.8012ZM30.2625 34.9768C30.2625 34.739 30.2625 34.5152 30.2625 34.2773C30.2625 32.8504 30.2625 32.8504 28.8281 32.9063C28.111 32.9343 27.7172 33.2981 27.7031 34.0395C27.6891 34.6271 27.6891 35.2006 27.7031 35.7882C27.7172 36.7955 28.1672 37.0613 29.6297 37.1032C30.7125 37.1312 30.1641 36.3758 30.2625 35.9561C30.3188 35.6483 30.2485 35.2986 30.2625 34.9768ZM47.0813 30.2763C47.0813 32.4167 47.1094 34.5711 47.0672 36.7115C47.0391 38.3623 46.6453 39.8592 45.0422 40.7405C44.3953 41.0903 43.6922 41.2861 42.961 41.3001C41.3438 41.3281 39.7266 41.3001 38.1094 41.3281C37.7156 41.3281 37.6313 41.1882 37.6453 40.8385C37.6735 40.2509 37.6313 39.6773 37.6594 39.0898C37.6875 37.9706 38.5453 37.1172 39.6703 37.0753C40.4016 37.0473 41.1188 37.0613 41.85 37.0753C42.4406 37.0753 42.7641 36.8374 42.7641 36.2079C42.7641 35.5644 42.4547 35.3405 41.8641 35.3266C40.8797 35.2986 39.8953 35.4385 38.925 35.1587C37.2516 34.669 36.0281 33.2841 35.986 31.5633C35.9016 28.8354 35.9578 26.1074 35.9438 23.3794C35.9438 23.0716 36.0422 22.9737 36.3516 22.9877C37.5047 23.0017 38.6438 23.0157 39.7969 22.9877C40.3031 22.9737 40.2328 23.2535 40.2328 23.5613C40.2328 25.6177 40.2328 27.6602 40.2328 29.7167C40.2328 30.612 40.6547 31.0877 41.4422 31.1157C42.3703 31.1437 42.7781 30.7659 42.7781 29.8286C42.7781 27.7582 42.7922 25.6737 42.7641 23.6032C42.7641 23.1136 42.8906 22.9737 43.3828 22.9877C44.4094 23.0297 45.45 23.0436 46.4766 22.9877C47.0391 22.9597 47.1235 23.1696 47.1094 23.6592C47.0672 25.8556 47.0813 28.0659 47.0813 30.2763ZM11.25 33.4519C11.25 31.1716 11.25 28.8773 11.25 26.597C11.25 24.3587 12.6281 22.9597 14.8922 22.9877C16.3688 23.0017 17.8453 22.8198 19.3078 23.0996C21.1781 23.4633 22.3594 24.9043 22.3735 26.8208C22.3875 28.8493 22.3735 30.8778 22.3735 32.9063C22.3735 35.4525 20.8688 37.0053 18.3094 37.0753C17.536 37.1032 16.7625 37.0892 15.9891 37.0753C15.6375 37.0613 15.4828 37.1732 15.4969 37.5509C15.525 38.1105 15.511 38.6701 15.4969 39.2297C15.4688 40.4328 14.611 41.3001 13.4156 41.3141C12.7125 41.3281 11.8266 41.6079 11.3766 41.2022C10.9547 40.8245 11.2641 39.9291 11.25 39.2576C11.236 37.3271 11.25 35.3825 11.25 33.4519ZM15.4969 30.0245C15.4969 30.4721 15.4969 30.9058 15.4969 31.3535C15.4969 32.9343 15.4969 32.9343 17.086 32.7944C17.775 32.7385 18.0985 32.4027 18.1125 31.7172C18.1266 30.9338 18.0844 30.1364 18.1266 29.353C18.211 27.0867 17.7891 27.3105 15.9328 27.2965C15.5953 27.2965 15.4828 27.3944 15.4828 27.7302C15.511 28.4856 15.4969 29.2551 15.4969 30.0245Z" fill="#06306F"/>
<path d="M51.0609 33.4798C51.0609 31.6192 51.0469 29.7446 51.075 27.884C51.075 27.4503 50.9766 27.2684 50.4984 27.2824C49.8656 27.3104 49.0219 27.4923 48.6703 27.1845C48.2344 26.7788 48.5719 25.9114 48.5156 25.2399C48.5156 25.198 48.5156 25.142 48.5156 25.1C48.5156 24.4425 48.3047 23.6731 48.5859 23.1835C48.8672 22.6938 49.725 23.0016 50.3297 22.8477C51.525 22.5399 52.425 21.8544 53.1563 20.9032C53.6625 20.2596 54.2953 19.798 55.1109 19.6441C55.5469 19.5601 55.8141 19.6161 55.7859 20.1757C55.7438 20.9591 55.7859 21.7565 55.7719 22.5539C55.7578 22.8897 55.8844 23.0016 56.2219 22.9876C56.7844 22.9736 57.3469 23.0016 57.9094 22.9736C58.2469 22.9596 58.3594 23.0855 58.3453 23.4213C58.3312 24.5684 58.3312 25.7016 58.3453 26.8487C58.3453 27.1705 58.2609 27.3384 57.9094 27.2964C57.8391 27.2824 57.7688 27.2964 57.6984 27.2964C57.0797 27.3524 56.2219 27.0166 55.8984 27.4363C55.5891 27.828 55.7859 28.6394 55.7859 29.269C55.7859 33.0741 55.7719 36.8653 55.8 40.6705C55.8 41.2021 55.6594 41.37 55.125 41.328C54.6188 41.2861 54.0984 41.328 53.5781 41.314C52.0594 41.2581 51.0609 40.2368 51.0609 38.7259C51.0609 36.9772 51.0609 35.2285 51.0609 33.4798Z" fill="#02B9EF"/>
</svg>
