<svg width="40" height="40" viewBox="0 0 40 40" fill="none" xmlns="http://www.w3.org/2000/svg">
<rect width="40" height="40" rx="14" fill="white"/>
<mask id="mask0_785_2" style="mask-type:luminance" maskUnits="userSpaceOnUse" x="11" y="11" width="17" height="17">
<path fill-rule="evenodd" clip-rule="evenodd" d="M11.6665 11.6666H27.8972V27.8975H11.6665V11.6666Z" fill="white"/>
</mask>
<g mask="url(#mask0_785_2)">
<path fill-rule="evenodd" clip-rule="evenodd" d="M19.7823 12.9166C15.9965 12.9166 12.9165 15.9958 12.9165 19.7816C12.9165 23.5675 15.9965 26.6475 19.7823 26.6475C23.5673 26.6475 26.6473 23.5675 26.6473 19.7816C26.6473 15.9958 23.5673 12.9166 19.7823 12.9166M19.7823 27.8975C15.3073 27.8975 11.6665 24.2566 11.6665 19.7816C11.6665 15.3066 15.3073 11.6666 19.7823 11.6666C24.2573 11.6666 27.8973 15.3066 27.8973 19.7816C27.8973 24.2566 24.2573 27.8975 19.7823 27.8975" fill="#130F26"/>
</g>
<mask id="mask1_785_2" style="mask-type:luminance" maskUnits="userSpaceOnUse" x="24" y="24" width="5" height="5">
<path fill-rule="evenodd" clip-rule="evenodd" d="M24.3667 24.7557H28.5534V28.9347H24.3667V24.7557Z" fill="white"/>
</mask>
<g mask="url(#mask1_785_2)">
<path fill-rule="evenodd" clip-rule="evenodd" d="M27.9286 28.9347C27.7694 28.9347 27.6094 28.8739 27.4869 28.7522L24.5502 25.8239C24.3061 25.5797 24.3052 25.1839 24.5494 24.9397C24.7927 24.6939 25.1886 24.6955 25.4336 24.938L28.3702 27.8672C28.6144 28.1114 28.6152 28.5064 28.3711 28.7505C28.2494 28.8739 28.0886 28.9347 27.9286 28.9347" fill="#130F26"/>
</g>
</svg>
