<svg width="24" height="24" viewBox="0 0 24 24" fill="none" xmlns="http://www.w3.org/2000/svg">
<g clip-path="url(#clip0_34_483)">
<path d="M21 13L21 11L11 11L11 13L21 13ZM18.83 17.83L17.41 16.41C16.14 17.99 14.19 19 12 19C8.13 19 5 15.87 5 12C5 8.13 8.13 5 12 5C14.19 5 16.14 6.01 17.42 7.58L18.83 6.17C17.18 4.23 14.74 3 12 3C7.03 3 3 7.03 3 12C3 16.97 7.03 21 12 21C14.74 21 17.18 19.77 18.83 17.83Z" fill="#0D1722"/>
</g>
<defs>
<clipPath id="clip0_34_483">
<rect width="24" height="24" fill="white" transform="translate(24) rotate(90)"/>
</clipPath>
</defs>
</svg>
