<svg width="42" height="42" viewBox="0 0 42 42" fill="none" xmlns="http://www.w3.org/2000/svg">
<rect x="1" y="1" width="40" height="40" rx="14" fill="white" stroke="#9EA2A7" stroke-opacity="0.5"/>
<g clip-path="url(#clip0_30_278)">
<path d="M21 9C14.3829 9 9 14.3829 9 21C9 27.6171 14.3829 33 21 33C27.6171 33 33 27.6171 33 21C33 14.3829 27.6171 9 21 9ZM27.082 18.457L20.582 24.9569C20.387 25.1519 20.131 25.2501 19.875 25.2501C19.619 25.2501 19.363 25.1519 19.168 24.9569L15.9181 21.707C15.527 21.316 15.527 20.684 15.9181 20.293C16.309 19.9019 16.9409 19.9019 17.332 20.293L19.875 22.836L25.6681 17.0431C26.059 16.652 26.6909 16.652 27.082 17.0431C27.473 17.434 27.473 18.0659 27.082 18.457Z" fill="#0D1722"/>
</g>
<defs>
<clipPath id="clip0_30_278">
<rect width="24" height="24" fill="white" transform="translate(9 9)"/>
</clipPath>
</defs>
</svg>
