<svg width="24" height="24" viewBox="0 0 24 24" fill="none" xmlns="http://www.w3.org/2000/svg">
<path d="M12.0013 2.25073C9.41613 2.25373 6.93772 3.28201 5.10974 5.10999C3.28177 6.93797 2.25349 9.41638 2.25049 12.0015C2.25349 14.5867 3.28177 17.0651 5.10974 18.8931C6.93772 20.721 9.41613 21.7493 12.0013 21.7523C14.5864 21.7493 17.0648 20.721 18.8928 18.8931C20.7208 17.0651 21.7491 14.5867 21.7521 12.0015C21.7491 9.41638 20.7208 6.93797 18.8928 5.10999C17.0648 3.28201 14.5864 2.25373 12.0013 2.25073ZM12.7524 3.78422C14.8028 3.96846 16.7097 4.914 18.0974 6.43448C19.4852 7.95497 20.2531 9.94012 20.2498 11.9987C20.2531 14.0573 19.4852 16.0424 18.0974 17.5629C16.7097 19.0834 14.8028 20.0289 12.7524 20.2132V3.78422Z" fill="#0D1722"/>
</svg>
