<svg xmlns="http://www.w3.org/2000/svg" version="1.1" xmlns:xlink="http://www.w3.org/1999/xlink" width="512" height="512" x="0" y="0" viewBox="0 0 512 512" style="enable-background:new 0 0 512 512" xml:space="preserve"><g><g fill-rule="evenodd" clip-rule="evenodd"><path fill="#f34235" d="M256 0C114.8 0 0 114.8 0 256s114.8 256 256 256 256-114.8 256-256S397.2 0 256 0z" opacity="1" data-original="#f34235"></path><path fill="#ffffff" d="M366 274.5c0 60.7-49.4 110-110 110-60.7 0-110-49.4-110-110 0-37.4 18.7-71.9 50.1-92.2 7.4-4.8 17.3-2.7 22.1 4.7s2.7 17.3-4.7 22.1C191.2 223.5 178 248 178 274.5c0 43 35 78 78 78s78-35 78-78c0-26.5-13.3-51-35.5-65.4-7.4-4.8-9.5-14.7-4.7-22.1s14.7-9.5 22.1-4.7c31.4 20.3 50.1 54.8 50.1 92.2zm-126-57.1v-73.9c0-8.8 7.2-16 16-16s16 7.2 16 16v73.9c0 8.8-7.2 16-16 16s-16-7.2-16-16z" opacity="1" data-original="#ffffff"></path></g></g></svg>