<svg width="21" height="21" viewBox="0 0 21 21" fill="none" xmlns="http://www.w3.org/2000/svg">
<g clip-path="url(#clip0_6_1877)">
<path d="M4.65404 12.6906L3.92306 15.4194L1.25135 15.476C0.452895 13.995 0 12.3006 0 10.5C0 8.75887 0.423445 7.11693 1.17403 5.67117H1.17461L3.55318 6.10725L4.59514 8.47156C4.37706 9.10734 4.2582 9.78984 4.2582 10.5C4.25828 11.2708 4.3979 12.0093 4.65404 12.6906Z" fill="#FBBB00"/>
<path d="M20.8165 8.53848C20.9371 9.17365 21 9.82961 21 10.5C21 11.2517 20.921 11.985 20.7704 12.6923C20.2593 15.0993 18.9237 17.201 17.0735 18.6883L17.0729 18.6877L14.077 18.5349L13.653 15.8879C14.8806 15.1679 15.8401 14.0412 16.3455 12.6923H10.7308V8.53848H16.4274H20.8165Z" fill="#518EF8"/>
<path d="M17.0729 18.6877L17.0734 18.6883C15.2741 20.1346 12.9882 21 10.5 21C6.50134 21 3.02482 18.765 1.25134 15.476L4.65404 12.6906C5.54076 15.0571 7.82364 16.7418 10.5 16.7418C11.6504 16.7418 12.7281 16.4308 13.6529 15.8879L17.0729 18.6877Z" fill="#28B446"/>
<path d="M17.2021 2.4173L13.8006 5.20209C12.8435 4.60384 11.7121 4.25824 10.5 4.25824C7.76306 4.25824 5.43748 6.02015 4.59518 8.47153L1.1746 5.67115H1.17403C2.92154 2.30192 6.44191 0 10.5 0C13.0477 0 15.3836 0.907512 17.2021 2.4173Z" fill="#F14336"/>
</g>
<defs>
<clipPath id="clip0_6_1877">
<rect width="21" height="21" fill="white"/>
</clipPath>
</defs>
</svg>
