<svg width="18" height="16" viewBox="0 0 18 16" fill="none" xmlns="http://www.w3.org/2000/svg">
<path d="M16.6621 0.527344C16.9811 0.527344 17.2318 0.628255 17.4141 0.830078C17.5964 1.0319 17.7135 1.27604 17.7656 1.5625C17.8307 1.91406 17.8633 2.39583 17.8633 3.00781C17.8633 5.15625 17.3815 6.73828 16.418 7.75391C15.4609 8.76953 13.9375 9.27734 11.8477 9.27734H5.91016L3.74219 9.16016L6.26172 11.4453L8.3418 13.5352C8.56966 13.763 8.68359 14.0299 8.68359 14.3359C8.68359 14.6419 8.57943 14.8958 8.37109 15.0977C8.16276 15.2995 7.89909 15.4004 7.58008 15.4004C7.2806 15.4004 7.01042 15.2799 6.76953 15.0391L0.714844 8.99414C0.473958 8.75326 0.353516 8.47656 0.353516 8.16406C0.353516 7.84505 0.473958 7.5651 0.714844 7.32422L6.7793 1.25977C7.02669 1.0319 7.29362 0.917969 7.58008 0.917969C7.89909 0.917969 8.16276 1.01888 8.37109 1.2207C8.57943 1.42253 8.68359 1.67643 8.68359 1.98242C8.68359 2.28841 8.56966 2.55534 8.3418 2.7832L6.26172 4.87305L3.73242 7.16797L5.91016 7.04102H11.6914C13.1172 7.04102 14.1263 6.72852 14.7188 6.10352C15.3112 5.47201 15.6074 4.42383 15.6074 2.95898C15.6074 2.75716 15.6009 2.51302 15.5879 2.22656C15.5749 1.9401 15.5684 1.74479 15.5684 1.64062C15.5684 1.30859 15.6693 1.04167 15.8711 0.839844C16.0729 0.63151 16.3366 0.527344 16.6621 0.527344Z" fill="#9EA2A7"/>
</svg>
