<svg width="42" height="42" viewBox="0 0 42 42" fill="none" xmlns="http://www.w3.org/2000/svg">
<rect width="42" height="42" rx="14" fill="#0D1722"/>
<g clip-path="url(#clip0_26_1679)">
<path d="M28.14 21.9399C28.18 21.6399 28.2 21.3299 28.2 20.9999C28.2 20.6799 28.18 20.3599 28.13 20.0599L30.16 18.4799C30.34 18.3399 30.39 18.0699 30.28 17.8699L28.36 14.5499C28.24 14.3299 27.99 14.2599 27.77 14.3299L25.38 15.2899C24.88 14.9099 24.35 14.5899 23.76 14.3499L23.4 11.8099C23.36 11.5699 23.16 11.3999 22.92 11.3999H19.08C18.84 11.3999 18.65 11.5699 18.61 11.8099L18.25 14.3499C17.66 14.5899 17.12 14.9199 16.63 15.2899L14.24 14.3299C14.02 14.2499 13.77 14.3299 13.65 14.5499L11.74 17.8699C11.62 18.0799 11.66 18.3399 11.86 18.4799L13.89 20.0599C13.84 20.3599 13.8 20.6899 13.8 20.9999C13.8 21.3099 13.82 21.6399 13.87 21.9399L11.84 23.5199C11.66 23.6599 11.61 23.9299 11.72 24.1299L13.64 27.4499C13.76 27.6699 14.01 27.7399 14.23 27.6699L16.62 26.7099C17.12 27.0899 17.65 27.4099 18.24 27.6499L18.6 30.1899C18.65 30.4299 18.84 30.5999 19.08 30.5999H22.92C23.16 30.5999 23.36 30.4299 23.39 30.1899L23.75 27.6499C24.34 27.4099 24.88 27.0899 25.37 26.7099L27.76 27.6699C27.98 27.7499 28.23 27.6699 28.35 27.4499L30.27 24.1299C30.39 23.9099 30.34 23.6599 30.15 23.5199L28.14 21.9399ZM21 24.5999C19.02 24.5999 17.4 22.9799 17.4 20.9999C17.4 19.0199 19.02 17.3999 21 17.3999C22.98 17.3999 24.6 19.0199 24.6 20.9999C24.6 22.9799 22.98 24.5999 21 24.5999Z" fill="white"/>
</g>
<defs>
<clipPath id="clip0_26_1679">
<rect width="24" height="24" fill="white" transform="translate(9 9)"/>
</clipPath>
</defs>
</svg>
