<svg width="119" height="40" viewBox="0 0 119 40" fill="none" xmlns="http://www.w3.org/2000/svg">
<rect width="119" height="40" rx="20" fill="white"/>
<path d="M52.0637 23.6191H56.5822V25H50.3342V15.0469H52.0637V23.6191ZM57.1367 21.2334C57.1367 20.5088 57.2803 19.8571 57.5674 19.2783C57.8545 18.695 58.2578 18.2484 58.7773 17.9385C59.2969 17.624 59.8939 17.4668 60.5684 17.4668C61.5664 17.4668 62.3753 17.7881 62.9951 18.4307C63.6195 19.0732 63.9567 19.9255 64.0068 20.9873L64.0137 21.377C64.0137 22.1061 63.8724 22.7578 63.5898 23.332C63.3118 23.9062 62.9108 24.3506 62.3867 24.665C61.8672 24.9795 61.2656 25.1367 60.582 25.1367C59.5384 25.1367 58.7021 24.7904 58.0732 24.0977C57.4489 23.4004 57.1367 22.473 57.1367 21.3154V21.2334ZM58.7979 21.377C58.7979 22.138 58.9551 22.735 59.2695 23.168C59.584 23.5964 60.0215 23.8105 60.582 23.8105C61.1426 23.8105 61.5778 23.5918 61.8877 23.1543C62.2021 22.7168 62.3594 22.0765 62.3594 21.2334C62.3594 20.486 62.1976 19.8936 61.874 19.4561C61.555 19.0186 61.1198 18.7998 60.5684 18.7998C60.026 18.7998 59.5954 19.0163 59.2764 19.4492C58.9574 19.8776 58.7979 20.5202 58.7979 21.377ZM68.157 23.8105C68.5717 23.8105 68.9158 23.6898 69.1893 23.4482C69.4627 23.2067 69.6085 22.9082 69.6268 22.5527H71.1922C71.174 23.013 71.0304 23.4437 70.7615 23.8447C70.4926 24.2412 70.1281 24.5557 69.6678 24.7881C69.2075 25.0205 68.7107 25.1367 68.1775 25.1367C67.143 25.1367 66.3227 24.8018 65.7166 24.1318C65.1105 23.4619 64.8074 22.5368 64.8074 21.3564V21.1855C64.8074 20.0599 65.1082 19.1598 65.7098 18.4854C66.3113 17.8063 67.1316 17.4668 68.1707 17.4668C69.0503 17.4668 69.7658 17.7243 70.3172 18.2393C70.8732 18.7497 71.1648 19.4219 71.1922 20.2559H69.6268C69.6085 19.832 69.4627 19.4834 69.1893 19.21C68.9204 18.9365 68.5763 18.7998 68.157 18.7998C67.6193 18.7998 67.2046 18.9958 66.9129 19.3877C66.6212 19.7751 66.4731 20.3652 66.4686 21.1582V21.4248C66.4686 22.2269 66.6121 22.8262 66.8992 23.2227C67.1909 23.6146 67.6102 23.8105 68.157 23.8105ZM76.566 25C76.4931 24.8587 76.4293 24.6286 76.3746 24.3096C75.846 24.861 75.1988 25.1367 74.4332 25.1367C73.6904 25.1367 73.0842 24.9248 72.6148 24.501C72.1454 24.0771 71.9107 23.5531 71.9107 22.9287C71.9107 22.1403 72.2024 21.5365 72.7857 21.1172C73.3736 20.6934 74.2122 20.4814 75.3014 20.4814H76.3199V19.9961C76.3199 19.6133 76.2128 19.3079 75.9986 19.0801C75.7844 18.8477 75.4586 18.7314 75.0211 18.7314C74.6428 18.7314 74.3329 18.8271 74.0914 19.0186C73.8499 19.2054 73.7291 19.4447 73.7291 19.7363H72.068C72.068 19.3307 72.2024 18.9525 72.4713 18.6016C72.7402 18.2461 73.1048 17.9681 73.565 17.7676C74.0299 17.5671 74.5471 17.4668 75.1168 17.4668C75.9827 17.4668 76.6731 17.6855 77.1881 18.123C77.7031 18.556 77.9674 19.1667 77.9811 19.9551V23.291C77.9811 23.9564 78.0745 24.4873 78.2613 24.8838V25H76.566ZM74.7408 23.8037C75.0689 23.8037 75.3766 23.724 75.6637 23.5645C75.9553 23.4049 76.1741 23.1908 76.3199 22.9219V21.5273H75.4244C74.8092 21.5273 74.3466 21.6344 74.0367 21.8486C73.7268 22.0628 73.5719 22.3659 73.5719 22.7578C73.5719 23.0768 73.6767 23.332 73.8863 23.5234C74.1005 23.7103 74.3854 23.8037 74.7408 23.8037ZM81.5023 15.8057V17.6035H82.808V18.834H81.5023V22.9629C81.5023 23.2454 81.557 23.4505 81.6664 23.5781C81.7803 23.7012 81.9809 23.7627 82.268 23.7627C82.4594 23.7627 82.6531 23.7399 82.849 23.6943V24.9795C82.4708 25.0843 82.1062 25.1367 81.7553 25.1367C80.4792 25.1367 79.8412 24.4326 79.8412 23.0244V18.834H78.6244V17.6035H79.8412V15.8057H81.5023ZM85.55 25H83.8889V17.6035H85.55V25ZM83.7863 15.6826C83.7863 15.4274 83.8661 15.2155 84.0256 15.0469C84.1896 14.8783 84.4221 14.7939 84.7229 14.7939C85.0236 14.7939 85.2561 14.8783 85.4201 15.0469C85.5842 15.2155 85.6662 15.4274 85.6662 15.6826C85.6662 15.9333 85.5842 16.1429 85.4201 16.3115C85.2561 16.4756 85.0236 16.5576 84.7229 16.5576C84.4221 16.5576 84.1896 16.4756 84.0256 16.3115C83.8661 16.1429 83.7863 15.9333 83.7863 15.6826ZM86.7539 21.2334C86.7539 20.5088 86.8975 19.8571 87.1846 19.2783C87.4717 18.695 87.875 18.2484 88.3945 17.9385C88.9141 17.624 89.5111 17.4668 90.1855 17.4668C91.1836 17.4668 91.9925 17.7881 92.6123 18.4307C93.2367 19.0732 93.5739 19.9255 93.624 20.9873L93.6309 21.377C93.6309 22.1061 93.4896 22.7578 93.207 23.332C92.929 23.9062 92.528 24.3506 92.0039 24.665C91.4844 24.9795 90.8828 25.1367 90.1992 25.1367C89.1556 25.1367 88.3193 24.7904 87.6904 24.0977C87.0661 23.4004 86.7539 22.473 86.7539 21.3154V21.2334ZM88.415 21.377C88.415 22.138 88.5723 22.735 88.8867 23.168C89.2012 23.5964 89.6387 23.8105 90.1992 23.8105C90.7598 23.8105 91.195 23.5918 91.5049 23.1543C91.8193 22.7168 91.9766 22.0765 91.9766 21.2334C91.9766 20.486 91.8148 19.8936 91.4912 19.4561C91.1722 19.0186 90.737 18.7998 90.1855 18.7998C89.6432 18.7998 89.2126 19.0163 88.8936 19.4492C88.5745 19.8776 88.415 20.5202 88.415 21.377ZM96.2771 17.6035L96.325 18.458C96.8719 17.7972 97.5896 17.4668 98.4783 17.4668C100.019 17.4668 100.803 18.3486 100.83 20.1123V25H99.1688V20.208C99.1688 19.7386 99.0662 19.3923 98.8611 19.1689C98.6606 18.9411 98.3302 18.8271 97.8699 18.8271C97.2 18.8271 96.701 19.1302 96.3729 19.7363V25H94.7117V17.6035H96.2771Z" fill="#0D1722"/>
<g clip-path="url(#clip0_640_8)">
<path d="M24 16C21.79 16 20 17.79 20 20C20 22.21 21.79 24 24 24C26.21 24 28 22.21 28 20C28 17.79 26.21 16 24 16ZM32.94 19C32.48 14.83 29.17 11.52 25 11.06V9H23V11.06C18.83 11.52 15.52 14.83 15.06 19H13V21H15.06C15.52 25.17 18.83 28.48 23 28.94V31H25V28.94C29.17 28.48 32.48 25.17 32.94 21H35V19H32.94V19ZM24 27C20.13 27 17 23.87 17 20C17 16.13 20.13 13 24 13C27.87 13 31 16.13 31 20C31 23.87 27.87 27 24 27Z" fill="#0D1722"/>
</g>
<defs>
<clipPath id="clip0_640_8">
<rect width="24" height="24" fill="white" transform="translate(12 8)"/>
</clipPath>
</defs>
</svg>
