<svg width="50" height="50" viewBox="0 0 50 50" fill="none" xmlns="http://www.w3.org/2000/svg">
<circle cx="25" cy="25" r="25" fill="#598FFF"/>
<path d="M20.3015 13C19.6093 13 18.9454 13.275 18.4559 13.7645C17.9664 14.254 17.6914 14.9179 17.6914 15.6101V34.3899C17.6914 35.8322 18.8597 37 20.3015 37C21.7433 37 22.9116 35.8317 22.9116 34.3899V15.6101C22.9116 14.1683 21.7439 13 20.3015 13ZM29.6979 13C29.0057 13 28.3418 13.275 27.8523 13.7645C27.3628 14.254 27.0878 14.9179 27.0878 15.6101V34.3899C27.0878 35.8317 28.2561 37 29.6979 37C31.1398 37 32.308 35.8317 32.308 34.3899V15.6101C32.308 14.9179 32.0331 14.254 31.5436 13.7645C31.0541 13.275 30.3902 13 29.6979 13Z" fill="white"/>
</svg>
