<svg width="50" height="50" viewBox="0 0 50 50" fill="none" xmlns="http://www.w3.org/2000/svg">
<circle cx="25" cy="25" r="25" fill="#598FFF"/>
<path fill-rule="evenodd" clip-rule="evenodd" d="M26.6964 18.0632C26.6335 17.4553 26.5679 16.8245 26.4067 16.1951C25.9676 14.6894 24.7512 13.75 23.447 13.75C22.7196 13.7473 21.7994 14.1956 21.2777 14.6492L16.9536 18.2712H14.6899C13.024 18.2712 11.6844 19.5555 11.4314 21.4088C11.2165 23.1883 11.164 26.5473 11.4314 28.5053C11.6634 30.4633 12.9427 31.7288 14.6899 31.7288H16.9536L21.3616 35.4045C21.8138 35.7977 22.6121 36.2486 23.3461 36.2486C23.3933 36.25 23.4352 36.25 23.4772 36.25C24.8063 36.25 25.9768 35.2757 26.4159 33.774C26.5813 33.1391 26.6393 32.5441 26.6953 31.969L26.6964 31.9583L26.7554 31.3852C26.9808 29.5266 26.9808 20.4614 26.7554 18.6161L26.6964 18.0632ZM31.7582 18.1182C31.3978 17.5868 30.6834 17.4539 30.1604 17.823C29.6427 18.1947 29.5142 18.9275 29.8747 19.4575C30.8774 20.9351 31.4292 22.9025 31.4292 25C31.4292 27.0962 30.8774 29.0649 29.8747 30.5425C29.5142 31.0726 29.6427 31.8053 30.1617 32.177C30.3557 32.3139 30.5825 32.3864 30.8158 32.3864C31.192 32.3864 31.5433 32.1971 31.7582 31.8818C33.0244 30.0164 33.723 27.5726 33.723 25C33.723 22.4274 33.0244 19.9836 31.7582 18.1182ZM34.1126 14.0263C34.6343 13.6559 35.3512 13.7915 35.7091 14.3216C37.6699 17.2082 38.75 21.002 38.75 24.9999C38.75 29.0004 37.6699 32.7929 35.7091 35.6795C35.4954 35.9949 35.1428 36.1841 34.7666 36.1841C34.5333 36.1841 34.3079 36.1116 34.1139 35.9747C33.5948 35.603 33.4664 34.8716 33.8255 34.3402C35.5216 31.8414 36.4562 28.524 36.4562 24.9999C36.4562 21.4771 35.5216 18.1597 33.8255 15.6609C33.4664 15.1308 33.5948 14.3981 34.1126 14.0263Z" fill="white"/>
</svg>
