<svg width="55" height="55" viewBox="0 0 55 55" fill="none" xmlns="http://www.w3.org/2000/svg">
<circle cx="27.5" cy="27.5" r="27.5" fill="#0D1722"/>
<g clip-path="url(#clip0_653_31)">
<path d="M19 32C19 32.88 19.39 33.67 20 34.22V36C20 36.55 20.45 37 21 37H22C22.55 37 23 36.55 23 36V35H31V36C31 36.55 31.45 37 32 37H33C33.55 37 34 36.55 34 36V34.22C34.61 33.67 35 32.88 35 32V22C35 18.5 31.42 18 27 18C22.58 18 19 18.5 19 22V32ZM22.5 33C21.67 33 21 32.33 21 31.5C21 30.67 21.67 30 22.5 30C23.33 30 24 30.67 24 31.5C24 32.33 23.33 33 22.5 33ZM31.5 33C30.67 33 30 32.33 30 31.5C30 30.67 30.67 30 31.5 30C32.33 30 33 30.67 33 31.5C33 32.33 32.33 33 31.5 33ZM33 27H21V22H33V27Z" fill="white"/>
</g>
<defs>
<clipPath id="clip0_653_31">
<rect width="24" height="24" fill="white" transform="translate(15 16)"/>
</clipPath>
</defs>
</svg>
