<svg width="40" height="40" viewBox="0 0 40 40" fill="none" xmlns="http://www.w3.org/2000/svg">
<rect width="40" height="40" rx="14" fill="white"/>
<path fill-rule="evenodd" clip-rule="evenodd" d="M12 14.75C12 14.3358 12.3358 14 12.75 14H19.25C19.6642 14 20 14.3358 20 14.75C20 15.1642 19.6642 15.5 19.25 15.5H12.75C12.3358 15.5 12 15.1642 12 14.75ZM12 20.25C12 19.8358 12.3358 19.5 12.75 19.5H27.25C27.6642 19.5 28 19.8358 28 20.25C28 20.6642 27.6642 21 27.25 21H12.75C12.3358 21 12 20.6642 12 20.25ZM20.75 25C20.3358 25 20 25.3358 20 25.75C20 26.1642 20.3358 26.5 20.75 26.5H27.25C27.6642 26.5 28 26.1642 28 25.75C28 25.3358 27.6642 25 27.25 25H20.75Z" fill="#0D1722"/>
</svg>
