<svg width="24" height="24" viewBox="0 0 24 24" fill="none" xmlns="http://www.w3.org/2000/svg">
<g clip-path="url(#clip0_67_85)">
<path d="M12 0C5.37309 0 4.57764e-05 5.37305 4.57764e-05 12C4.57764e-05 18.6268 5.37309 24 12 24C18.6269 24 23.9999 18.6268 23.9999 12C23.9999 5.37305 18.6269 0 12 0ZM18.3368 17.5093L17.376 18.4703C17.2044 18.6416 16.7022 18.7485 16.686 18.7485C13.6464 18.775 10.7198 17.5811 8.56943 15.4305C6.4132 13.273 5.21788 10.3359 5.24998 7.28612C5.24998 7.28473 5.35998 6.79683 5.53137 6.62708L6.49214 5.66616C6.84372 5.31295 7.51909 5.15333 7.9922 5.31161L8.1943 5.37903C8.66603 5.53716 9.1613 6.05875 9.29163 6.53928L9.77494 8.31312C9.90527 8.79503 9.72948 9.48064 9.378 9.83222L8.73646 10.4738C9.36632 12.8056 11.1959 14.6356 13.5281 15.2669L14.1694 14.6252C14.5226 14.272 15.2079 14.0963 15.6888 14.2264L17.4624 14.7115C17.943 14.8435 18.4645 15.3357 18.6226 15.8073L18.69 16.0123C18.8467 16.4841 18.6883 17.1593 18.3368 17.5093Z" fill="#F5F6F6"/>
</g>
<defs>
<clipPath id="clip0_67_85">
<rect width="24" height="24" fill="white"/>
</clipPath>
</defs>
</svg>
