<svg width="42" height="42" viewBox="0 0 42 42" fill="none" xmlns="http://www.w3.org/2000/svg">
<rect width="42" height="42" rx="14" fill="#0D1722"/>
<g clip-path="url(#clip0_26_1669)">
<path d="M29 15H26.82C26.93 14.69 27 14.35 27 14C27 12.34 25.66 11 24 11C22.95 11 22.04 11.54 21.5 12.35L21 13.02L20.5 12.34C19.96 11.54 19.05 11 18 11C16.34 11 15 12.34 15 14C15 14.35 15.07 14.69 15.18 15H13C11.89 15 11.01 15.89 11.01 17L11 28C11 29.11 11.89 30 13 30H29C30.11 30 31 29.11 31 28V17C31 15.89 30.11 15 29 15ZM24 13C24.55 13 25 13.45 25 14C25 14.55 24.55 15 24 15C23.45 15 23 14.55 23 14C23 13.45 23.45 13 24 13ZM18 13C18.55 13 19 13.45 19 14C19 14.55 18.55 15 18 15C17.45 15 17 14.55 17 14C17 13.45 17.45 13 18 13ZM29 28H13V26H29V28ZM29 23H13V17H18.08L16 19.83L17.62 21L21 16.4L24.38 21L26 19.83L23.92 17H29V23Z" fill="white"/>
</g>
<defs>
<clipPath id="clip0_26_1669">
<rect width="24" height="24" fill="white" transform="translate(9 9)"/>
</clipPath>
</defs>
</svg>
