<svg width="18" height="15" viewBox="0 0 18 15" fill="none" xmlns="http://www.w3.org/2000/svg">
<g clip-path="url(#clip0_32_292)">
<path d="M0.357422 7.13477C0.357422 7.38867 0.464844 7.62305 0.660156 7.80859L6.7832 13.9219C6.97852 14.1074 7.19336 14.1953 7.42773 14.1953C7.92578 14.1953 8.30664 13.834 8.30664 13.3359C8.30664 13.0918 8.20898 12.8672 8.05273 12.7012L5.98242 10.6016L3.01367 7.89648L5.2207 8.0332H16.7344C17.2617 8.0332 17.6328 7.66211 17.6328 7.13477C17.6328 6.61719 17.2617 6.24609 16.7344 6.24609H5.2207L3.02344 6.38281L5.98242 3.67773L8.05273 1.56836C8.21875 1.41211 8.30664 1.17773 8.30664 0.943359C8.30664 0.445312 7.92578 0.0839844 7.42773 0.0839844C7.19336 0.0839844 6.97852 0.171875 6.76367 0.376953L0.660156 6.4707C0.464844 6.65625 0.357422 6.89062 0.357422 7.13477Z" fill="white"/>
</g>
<defs>
<clipPath id="clip0_32_292">
<rect width="18" height="15" fill="white"/>
</clipPath>
</defs>
</svg>
