<svg width="168" height="152" viewBox="0 0 168 152" fill="none" xmlns="http://www.w3.org/2000/svg">
<mask id="mask0_8_38" style="mask-type:luminance" maskUnits="userSpaceOnUse" x="39" y="0" width="128" height="147">
<path fill-rule="evenodd" clip-rule="evenodd" d="M39.9512 14.1754L150.747 0.546333L166.935 132.63L56.1392 146.259L39.9512 14.1754Z" fill="white"/>
</mask>
<g mask="url(#mask0_8_38)">
<path fill-rule="evenodd" clip-rule="evenodd" d="M153.205 79.2088C155.444 80.9342 157.062 83.6273 157.45 86.7935C158.058 91.7606 155.467 96.3335 151.443 98.0597C153.523 99.6277 155.026 102.111 155.384 105.029L155.425 105.36C155.968 109.794 153.718 113.891 150.177 115.53C152.492 117.125 154.185 119.79 154.573 122.956L154.69 123.912C155.37 129.453 151.812 134.49 146.788 135.108L96.2222 141.328C96.2222 141.328 82.6799 143.036 79.7374 140.081C77.8341 138.17 74.5473 136.727 72.4668 135.948C71.3316 135.523 70.5546 135.292 70.5546 135.292L55.0292 137.202L48.431 83.3653C48.431 83.3653 62.0158 80.794 69.8116 75.3665C71.2471 74.3692 72.4842 73.2747 73.4073 72.0836C79.342 64.4035 87.1783 44.1711 87.3729 34.0393C87.5633 23.9082 84.1821 17.374 84.7034 12.2584C85.2197 7.1388 101.699 1.3243 110.062 27.4563C113.7 38.8235 114.187 48.3678 113.571 55.524C113.432 57.1176 113.241 58.5918 113.021 59.9437L146.138 55.87C148.327 55.6007 150.46 56.0474 152.334 57.0434C155.754 58.8476 158.336 62.4668 158.874 66.8596C159.51 72.0477 157.117 76.871 153.205 79.2088Z" fill="white"/>
</g>
<path fill-rule="evenodd" clip-rule="evenodd" d="M69.7692 75.5294L72.4622 136.323C71.3294 135.896 70.5541 135.664 70.5541 135.664L55.0669 137.569L48.4452 83.5404C48.4452 83.5404 61.9959 80.9701 69.7692 75.5294Z" fill="#E9E9E9"/>
<mask id="mask1_8_38" style="mask-type:luminance" maskUnits="userSpaceOnUse" x="8" y="71" width="62" height="80">
<path fill-rule="evenodd" clip-rule="evenodd" d="M8.05481 77.6163L60.3497 71.1835L69.3076 144.274L17.0128 150.707L8.05481 77.6163Z" fill="white"/>
</mask>
<g mask="url(#mask1_8_38)">
<path fill-rule="evenodd" clip-rule="evenodd" d="M60.9918 76.4234L68.6654 139.034C69.0203 141.93 66.975 144.561 64.0933 144.916L22.2284 150.066C18.9901 150.464 16.1747 147.833 16.3393 144.557L17.8914 113.502L19.5334 80.6086C19.6606 78.0457 21.6044 75.9495 24.1384 75.6378L55.1353 71.8249C58.017 71.4704 60.6369 73.5275 60.9918 76.4234Z" fill="#2DBB54"/>
</g>
<mask id="mask2_8_38" style="mask-type:luminance" maskUnits="userSpaceOnUse" x="14" y="125" width="56" height="26">
<path fill-rule="evenodd" clip-rule="evenodd" d="M14.6364 132.152L66.9312 125.719L69.2303 144.478L16.9355 150.911L14.6364 132.152Z" fill="white"/>
</mask>
<g mask="url(#mask2_8_38)">
<path fill-rule="evenodd" clip-rule="evenodd" d="M16.9007 131.873L16.2608 144.75C16.0969 148.033 18.9129 150.668 22.1514 150.27L64.016 145.12C66.8977 144.765 68.9426 142.13 68.587 139.23L66.9312 125.719L16.9007 131.873Z" fill="#11AE3C"/>
</g>
<path fill-rule="evenodd" clip-rule="evenodd" d="M39.6377 132.042C40.0321 135.261 37.7476 138.19 34.5351 138.585C31.3226 138.98 28.3986 136.692 28.0041 133.473C27.6097 130.255 29.8942 127.325 33.1067 126.93C36.3192 126.535 39.2432 128.824 39.6377 132.042Z" fill="#179C3C"/>
<path fill-rule="evenodd" clip-rule="evenodd" d="M37.6842 132.042C38.0786 135.261 35.7938 138.19 32.5816 138.585C29.3691 138.98 26.4451 136.692 26.0506 133.473C25.6562 130.255 27.9407 127.325 31.1532 126.93C34.3654 126.535 37.2898 128.824 37.6842 132.042Z" fill="#2DBB54"/>
<path opacity="0.3" fill-rule="evenodd" clip-rule="evenodd" d="M33.3022 127.321C34.1401 128.061 34.7217 129.087 34.8671 130.273C35.1873 132.886 33.2858 135.269 30.62 135.597C28.7559 135.827 27.0144 134.988 26.0242 133.571C26.0255 133.582 26.0252 133.592 26.0266 133.603C26.4124 136.751 29.3294 138.983 32.5419 138.588C35.7544 138.193 38.046 135.32 37.6601 132.172C37.3638 129.754 35.5721 127.882 33.3022 127.321Z" fill="#182C31"/>
<mask id="mask3_8_38" style="mask-type:luminance" maskUnits="userSpaceOnUse" x="85" y="0" width="82" height="141">
<path fill-rule="evenodd" clip-rule="evenodd" d="M85.516 8.72495L150.268 0.759733L166.456 132.843L101.704 140.808L85.516 8.72495Z" fill="white"/>
</mask>
<g mask="url(#mask3_8_38)">
<path fill-rule="evenodd" clip-rule="evenodd" d="M158.396 67.0726C157.857 62.6798 155.279 59.0656 151.864 57.2567L151.864 57.2552C151.856 57.2515 151.848 57.2481 151.841 57.2442C151.615 57.1253 151.387 57.0126 151.153 56.9096C151.146 56.9062 151.139 56.9037 151.132 56.9006C150.926 56.8102 150.717 56.7279 150.507 56.6504C150.442 56.627 150.378 56.6043 150.313 56.5816C150.132 56.5191 149.95 56.4612 149.766 56.4086C149.72 56.3956 149.675 56.3803 149.629 56.3678C149.411 56.3084 149.191 56.2579 148.969 56.2127C148.886 56.1959 148.803 56.1819 148.72 56.1667C148.557 56.1367 148.394 56.1129 148.23 56.0917C148.164 56.0831 148.1 56.0736 148.034 56.0666C147.805 56.0414 147.575 56.0234 147.343 56.0139C147.291 56.0117 147.238 56.0124 147.186 56.0111C146.994 56.0062 146.801 56.0069 146.607 56.013C146.539 56.015 146.471 56.0172 146.402 56.0204C146.161 56.0329 145.919 56.0507 145.676 56.0806L135.615 57.3182L112.607 60.1484C112.669 59.768 112.728 59.3754 112.785 58.9753C112.815 58.7589 112.845 58.5378 112.874 58.3155C112.902 58.0981 112.929 57.8776 112.956 57.6546C112.982 57.4366 113.008 57.2202 113.032 56.9969C113.077 56.5827 113.119 56.1612 113.156 55.7292L113.155 55.7294C113.767 48.5721 113.281 39.0314 109.647 27.6611C102.621 5.68686 89.8705 6.29957 85.6839 10.0948C90.5057 11.9289 95.8539 17.2249 99.5863 28.8987C104.028 42.7981 103.768 53.9686 102.547 61.3859L103.168 66.4546L140.114 61.9098C144.089 61.4209 147.793 64.1963 148.319 68.1851C148.324 68.2268 148.33 68.2684 148.335 68.3101C148.971 73.4982 146.582 78.3211 142.676 80.6581C144.912 82.3839 146.528 85.0772 146.916 88.2431C147.524 93.2105 144.937 97.7825 140.92 99.5083C142.997 101.076 144.499 103.56 144.857 106.478L144.897 106.809C145.441 111.243 143.195 115.339 139.658 116.978C141.971 118.573 143.662 121.238 144.05 124.404L144.167 125.36C144.847 130.902 141.295 135.938 136.279 136.555L146.339 135.317C151.356 134.7 154.907 129.664 154.228 124.123L154.111 123.167C153.723 120.001 152.031 117.336 149.719 115.74C153.255 114.102 155.501 110.005 154.958 105.571L154.917 105.24C154.56 102.322 153.058 99.8387 150.981 98.2707C154.998 96.5449 157.586 91.9729 156.977 87.0055C156.589 83.8396 154.973 81.1463 152.737 79.4205C156.643 77.0835 159.032 72.2606 158.396 67.0726Z" fill="#E9E9E9"/>
</g>
<path fill-rule="evenodd" clip-rule="evenodd" d="M31.4336 129.027C31.9897 129.513 31.906 130.556 31.2464 131.355C30.5866 132.154 29.6011 132.408 29.0452 131.922C28.4891 131.435 28.5731 130.393 29.2324 129.594C29.892 128.795 30.8775 128.541 31.4336 129.027Z" fill="white"/>
</svg>
