<svg width="42" height="42" viewBox="0 0 42 42" fill="none" xmlns="http://www.w3.org/2000/svg">
<rect width="42" height="42" rx="14" fill="#0D1722"/>
<g clip-path="url(#clip0_26_1629)">
<path d="M22 12C17.03 12 13 16.03 13 21H10L13.89 24.89L13.96 25.03L18 21H15C15 17.13 18.13 14 22 14C25.87 14 29 17.13 29 21C29 24.87 25.87 28 22 28C20.07 28 18.32 27.21 17.06 25.94L15.64 27.36C17.27 28.99 19.51 30 22 30C26.97 30 31 25.97 31 21C31 16.03 26.97 12 22 12ZM21 17V22L25.25 24.52L26.02 23.24L22.5 21.15V17H21Z" fill="white"/>
</g>
<defs>
<clipPath id="clip0_26_1629">
<rect width="24" height="24" fill="white" transform="translate(9 9)"/>
</clipPath>
</defs>
</svg>
