<svg width="24" height="24" viewBox="0 0 24 24" fill="none" xmlns="http://www.w3.org/2000/svg">
<rect width="24" height="24" fill="white"/>
<g clip-path="url(#clip0_765_84)">
<path d="M3.35742 12.1348C3.35742 12.3887 3.46484 12.623 3.66016 12.8086L9.7832 18.9219C9.97852 19.1074 10.1934 19.1953 10.4277 19.1953C10.9258 19.1953 11.3066 18.834 11.3066 18.3359C11.3066 18.0918 11.209 17.8672 11.0527 17.7012L8.98242 15.6016L6.01367 12.8965L8.2207 13.0332H19.7344C20.2617 13.0332 20.6328 12.6621 20.6328 12.1348C20.6328 11.6172 20.2617 11.2461 19.7344 11.2461H8.2207L6.02344 11.3828L8.98242 8.67773L11.0527 6.56836C11.2187 6.41211 11.3066 6.17773 11.3066 5.94336C11.3066 5.44531 10.9258 5.08398 10.4277 5.08398C10.1934 5.08398 9.97852 5.17187 9.76367 5.37695L3.66016 11.4707C3.46484 11.6562 3.35742 11.8906 3.35742 12.1348Z" fill="#0D1722"/>
</g>
<defs>
<clipPath id="clip0_765_84">
<rect width="18" height="15" fill="white" transform="translate(3 5)"/>
</clipPath>
</defs>
</svg>
