<svg width="43" height="27" viewBox="0 0 43 27" fill="none" xmlns="http://www.w3.org/2000/svg">
<path d="M41.0454 26.3637H1.95457C0.879568 26.3637 0 25.4842 0 24.4092V2.90916C0 1.83416 0.879568 0.95459 1.95457 0.95459H41.0455C42.1205 0.95459 43.0001 1.83416 43.0001 2.90916V24.4092C43 25.4842 42.1204 26.3637 41.0454 26.3637Z" fill="#0E9347"/>
<path d="M36.159 18.5454C33.9113 18.5454 31.859 19.6204 30.6863 21.3795C29.709 20.8909 28.634 20.5 27.3636 20.5C23.9432 20.5 21.109 23.0409 20.6204 26.3636H41.0454C42.0226 26.3636 42.8045 25.6795 43 24.7022C42.609 21.2818 39.6772 18.5454 36.159 18.5454Z" fill="#0D8944"/>
<path d="M37.1364 24.4091H5.86364C5.86364 22.2591 4.10459 20.5 1.95459 20.5V6.81823C4.10459 6.81823 5.86364 5.05918 5.86364 2.90918H37.1364C37.1364 5.05918 38.8955 6.81823 41.0455 6.81823V20.5C38.8955 20.5 37.1364 22.2591 37.1364 24.4091Z" fill="#3BB54A"/>
<path d="M21.4999 22.4546C25.8178 22.4546 29.3181 18.5168 29.3181 13.6592C29.3181 8.80162 25.8178 4.86377 21.4999 4.86377C17.182 4.86377 13.6817 8.80162 13.6817 13.6592C13.6817 18.5168 17.182 22.4546 21.4999 22.4546Z" fill="#0E9347"/>
<path d="M9.77271 15.6137C10.8522 15.6137 11.7273 14.7386 11.7273 13.6592C11.7273 12.5797 10.8522 11.7046 9.77271 11.7046C8.69324 11.7046 7.81815 12.5797 7.81815 13.6592C7.81815 14.7386 8.69324 15.6137 9.77271 15.6137Z" fill="#0E9347"/>
<path d="M33.2273 15.6137C34.3068 15.6137 35.1818 14.7386 35.1818 13.6592C35.1818 12.5797 34.3068 11.7046 33.2273 11.7046C32.1478 11.7046 31.2727 12.5797 31.2727 13.6592C31.2727 14.7386 32.1478 15.6137 33.2273 15.6137Z" fill="#0E9347"/>
<path d="M22.4772 12.6819H20.5227C19.9363 12.6819 19.5454 12.2909 19.5454 11.7046C19.5454 11.1182 19.9364 10.7274 20.5227 10.7274H23.4545C24.0409 10.7274 24.4317 10.3364 24.4317 9.75014C24.4317 9.16376 24.0408 8.7729 23.4545 8.7729H22.4772C22.4772 8.18652 22.0863 7.79565 21.5 7.79565C20.9136 7.79565 20.5228 8.1866 20.5228 8.7729C18.8614 8.7729 17.5909 10.0433 17.5909 11.7047C17.5909 13.3661 18.8614 14.6365 20.5228 14.6365H22.4773C23.0637 14.6365 23.4546 15.0275 23.4546 15.6138C23.4546 16.2001 23.0636 16.591 22.4773 16.591H19.5455C18.9591 16.591 18.5683 16.982 18.5683 17.5682C18.5683 18.1546 18.9592 18.5455 19.5455 18.5455H20.5228C20.5228 19.1319 20.9137 19.5227 21.5 19.5227C22.0864 19.5227 22.4772 19.1318 22.4772 18.5455C24.1386 18.5455 25.409 17.2751 25.409 15.6137C25.409 13.9523 24.1386 12.6819 22.4772 12.6819Z" fill="#89C763"/>
</svg>
