<svg xmlns="http://www.w3.org/2000/svg" version="1.1" xmlns:xlink="http://www.w3.org/1999/xlink" width="512" height="512" x="0" y="0" viewBox="0 0 256 256" style="enable-background:new 0 0 512 512" xml:space="preserve" class="hovered-paths"><g><circle cx="128" cy="128" r="128" fill="#ffd664" opacity="1" data-original="#ffd664" class="hovered-path"></circle><path d="M256 128c0-14.4-2.4-28.3-6.8-41.2-7.8 60.8-43.8 172.9-205.1 137.9C66.6 244.2 95.9 256 128 256c70.7 0 128-57.3 128-128z" opacity="1" fill="#00000006" data-original="#00000006"></path><path fill="#fff" d="M47.5 63.4c-2 0-4.1-.7-5.8-2.1-3.8-3.2-4.3-8.9-1.1-12.7 22.1-26.2 48.1-31.1 49.2-31.3 4.9-.9 9.6 2.4 10.4 7.3.9 4.9-2.4 9.5-7.2 10.4-.5.1-21.1 4.3-38.7 25.1-1.7 2.2-4.3 3.3-6.8 3.3z" opacity=".35"></path><circle cx="175.8" cy="108.7" r="39.6" fill="#f7f7f7"></circle><circle cx="166.3" cy="117.7" r="21.6" fill="#232323"></circle><circle cx="80.2" cy="108.7" r="39.6" fill="#f7f7f7"></circle><circle cx="89.7" cy="117.7" r="21.6" fill="#232323"></circle><g fill="#191919"><path d="M45.9 66c-2.6 0-5.2-.1-7.9-.5-4-.5-6.8-4.1-6.3-8.1s4.1-6.8 8.1-6.3c28 3.3 49.2-17.4 49.5-17.6 2.8-2.8 7.4-2.8 10.3 0 2.8 2.8 2.8 7.4 0 10.3-1.2.9-22.9 22.2-53.7 22.2zM210.1 66c-30.8 0-52.5-21.2-53.5-22.2-2.8-2.8-2.9-7.4 0-10.3 2.8-2.8 7.4-2.9 10.2 0 .3.3 21.7 21 49.5 17.6 4-.5 7.6 2.4 8.1 6.3.5 4-2.4 7.6-6.3 8.1-2.8.3-5.5.5-8 .5zM153.3 198c-1.2 0-2.4-.3-3.6-.9-.2-.1-9.5-4.8-21.8-4.8s-21.7 4.8-21.8 4.8c-3.8 2-8.5.5-10.4-3.3-2-3.8-.5-8.4 3.2-10.4.5-.3 12.7-6.6 29-6.6s28.5 6.4 29 6.6c3.8 2 5.2 6.7 3.2 10.5-1.3 2.6-4 4.1-6.8 4.1z"></path></g><path fill="#55d3ff" d="M61.2 176.5c0 20.3-13 31.9-29.1 31.9s-29-11.4-29-31.9c0-23.2 29.1-61.4 29.1-61.4s29 38.3 29 61.4z"></path></g></svg>