<svg width="50" height="50" viewBox="0 0 50 50" fill="none" xmlns="http://www.w3.org/2000/svg">
<circle cx="25" cy="25" r="25" fill="#198754"/>
<path fill-rule="evenodd" clip-rule="evenodd" d="M17.6413 15.625H24.8814C27.9089 15.625 30.0227 17.7113 30.0227 20.7011V29.2989C30.0227 32.2887 27.9089 34.375 24.8814 34.375H17.6413C14.6138 34.375 12.5 32.2887 12.5 29.2989V20.7011C12.5 17.7113 14.6138 15.625 17.6413 15.625ZM34.9475 18.5987C35.4962 18.3195 36.14 18.3487 36.6637 18.6787C37.1875 19.0074 37.5 19.5784 37.5 20.2028V29.798C37.5 30.4236 37.1875 30.9934 36.6637 31.3221C36.3775 31.501 36.0575 31.5924 35.735 31.5924C35.4662 31.5924 35.1975 31.5289 34.9462 31.4008L33.095 30.4668C32.4099 30.119 31.9849 29.4211 31.9849 28.6457V21.3538C31.9849 20.5772 32.4099 19.8792 33.095 19.534L34.9475 18.5987Z" fill="white"/>
</svg>
