<svg width="512" height="512" viewBox="0 0 512 512" fill="none" xmlns="http://www.w3.org/2000/svg">
<g clip-path="url(#clip0_1387_27)">
<path d="M256 512C397.385 512 512 397.385 512 256C512 114.615 397.385 0 256 0C114.615 0 0 114.615 0 256C0 397.385 114.615 512 256 512Z" fill="#F34235"/>
<path d="M211.78 246.69C240.416 246.69 263.63 223.476 263.63 194.84C263.63 166.204 240.416 142.99 211.78 142.99C183.144 142.99 159.93 166.204 159.93 194.84C159.93 223.476 183.144 246.69 211.78 246.69Z" fill="white"/>
<path d="M161.07 267.41H262.49C274.443 267.41 285.907 272.158 294.359 280.611C302.812 289.063 307.56 300.527 307.56 312.48V347.17C307.56 352.958 305.261 358.509 301.17 362.603C297.078 366.696 291.528 368.997 285.74 369H137.83C132.042 369 126.491 366.701 122.397 362.61C118.304 358.518 116.003 352.968 116 347.18V312.49C115.999 306.57 117.163 300.709 119.428 295.239C121.692 289.77 125.012 284.8 129.197 280.614C133.382 276.428 138.351 273.107 143.82 270.842C149.289 268.576 155.15 267.41 161.07 267.41ZM390.19 229L380.37 219.18L390.19 209.35C393.9 205.636 395.984 200.6 395.984 195.35C395.984 190.1 393.9 185.064 390.19 181.35C386.476 177.64 381.44 175.556 376.19 175.556C370.94 175.556 365.904 177.64 362.19 181.35L352.36 191.17L342.54 181.35C340.699 179.508 338.512 178.046 336.106 177.049C333.699 176.052 331.12 175.539 328.515 175.539C325.91 175.539 323.331 176.052 320.924 177.049C318.518 178.046 316.331 179.508 314.49 181.35C310.785 185.067 308.704 190.101 308.704 195.35C308.704 200.598 310.785 205.633 314.49 209.35L324.32 219.18L314.45 229C310.745 232.717 308.664 237.751 308.664 243C308.664 248.248 310.745 253.283 314.45 257C316.292 258.842 318.478 260.304 320.884 261.301C323.291 262.298 325.87 262.811 328.475 262.811C331.08 262.811 333.659 262.298 336.066 261.301C338.472 260.304 340.659 258.842 342.5 257L352.32 247.18L362.15 257C365.864 260.71 370.9 262.794 376.15 262.794C381.4 262.794 386.436 260.71 390.15 257C393.866 253.291 395.957 248.258 395.964 243.008C395.972 237.758 393.895 232.72 390.19 229Z" fill="white"/>
</g>
<defs>
<clipPath id="clip0_1387_27">
<rect width="512" height="512" fill="white"/>
</clipPath>
</defs>
</svg>
