<svg width="50" height="50" viewBox="0 0 50 50" fill="none" xmlns="http://www.w3.org/2000/svg">
<circle cx="25" cy="25" r="25" fill="#DC3545"/>
<g clip-path="url(#clip0_1371_59)">
<path d="M16.0855 35.8622C15.5461 35.8936 15.0157 35.7143 14.606 35.3621C13.798 34.5493 13.798 33.2366 14.606 32.4238L32.2979 14.7319C33.1382 13.9455 34.4569 13.9892 35.2433 14.8296C35.9543 15.5895 35.9958 16.7576 35.3403 17.5659L17.5442 35.3621C17.1398 35.7092 16.6178 35.8882 16.0855 35.8622Z" fill="white"/>
<path d="M33.7565 35.8622C33.2098 35.8599 32.6859 35.6429 32.2978 35.2579L14.6058 17.5659C13.8573 16.6917 13.959 15.3762 14.8332 14.6276C15.6133 13.9595 16.7639 13.9595 17.5441 14.6276L35.3402 32.3196C36.1803 33.1062 36.2238 34.4249 35.4372 35.265C35.4059 35.2985 35.3736 35.3308 35.3402 35.3621C35.1246 35.5495 34.8728 35.6907 34.6003 35.7767C34.3279 35.8627 34.0407 35.8918 33.7565 35.8622Z" fill="white"/>
</g>
<defs>
<clipPath id="clip0_1371_59">
<rect width="22" height="22" fill="white" transform="translate(14 14)"/>
</clipPath>
</defs>
</svg>
