<svg width="42" height="42" viewBox="0 0 42 42" fill="none" xmlns="http://www.w3.org/2000/svg">
<rect width="42" height="42" rx="14" fill="#0D1722"/>
<path d="M28.9396 18.4824L22.237 12.7074C21.2795 11.7707 19.7205 11.7707 18.8026 12.6687L12.0208 18.5211C11.364 19.1636 11 20.0229 11 20.9364V28.6699C11 29.9549 12.0683 31 13.3819 31H27.626C28.9317 31 30 29.9549 30 28.6699V20.9364C30 20.0229 29.636 19.1636 28.9396 18.4824ZM28.4173 28.6699C28.4173 29.1034 28.0612 29.4517 27.626 29.4517H22.6089V24.4664C22.6089 24.0174 22.2449 23.6613 21.7859 23.6613H19.2141C18.763 23.6613 18.3911 24.0174 18.3911 24.4664V29.4517H13.3819C12.9388 29.4517 12.5827 29.1034 12.5827 28.6699V20.9364C12.5827 20.4487 12.7884 19.961 13.105 19.6436L19.8867 13.7989C20.0529 13.6364 20.2666 13.5512 20.4881 13.5512C20.7255 13.5512 20.9629 13.6441 21.1529 13.8299L27.8555 19.6126C28.2195 19.9687 28.4173 20.4409 28.4173 20.9364V28.6699Z" fill="white"/>
</svg>
