<svg width="50" height="50" viewBox="0 0 50 50" fill="none" xmlns="http://www.w3.org/2000/svg">
<circle cx="25" cy="25" r="25" fill="#598FFF"/>
<path fill-rule="evenodd" clip-rule="evenodd" d="M25.2184 29.0217H24.7813C21.7771 29.0217 19.342 26.6159 19.342 23.6504V17.8713C19.342 14.9047 21.7771 12.5 24.7813 12.5H25.2184C28.2227 12.5 30.659 14.9047 30.659 17.8713V23.6504C30.659 26.6159 28.2227 29.0217 25.2184 29.0217ZM33.2032 23.4786C33.2032 22.8173 33.7457 22.2828 34.4141 22.2828C35.0825 22.2828 35.625 22.8173 35.625 23.4786C35.625 28.8583 31.5007 33.3005 26.2115 33.8972V36.3042C26.2115 36.9643 25.669 37.5 25.0006 37.5C24.331 37.5 23.7897 36.9643 23.7897 36.3042V33.8972C18.4993 33.3005 14.375 28.8583 14.375 23.4786C14.375 22.8173 14.9175 22.2828 15.5859 22.2828C16.2543 22.2828 16.7968 22.8173 16.7968 23.4786C16.7968 27.9447 20.4767 31.5786 25.0006 31.5786C29.5233 31.5786 33.2032 27.9447 33.2032 23.4786Z" fill="white"/>
</svg>
