<svg width="42" height="42" viewBox="0 0 42 42" fill="none" xmlns="http://www.w3.org/2000/svg">
<rect width="42" height="42" rx="14" fill="#0D1722"/>
<g clip-path="url(#clip0_26_1646)">
<path d="M30 16.28V14C30 12.9 29.1 12 28 12H14C12.89 12 12 12.9 12 14V28C12 29.1 12.89 30 14 30H28C29.1 30 30 29.1 30 28V25.72C30.59 25.37 31 24.74 31 24V18C31 17.26 30.59 16.63 30 16.28ZM29 18V24H22V18H29ZM14 28V14H28V16H22C20.9 16 20 16.9 20 18V24C20 25.1 20.9 26 22 26H28V28H14Z" fill="white"/>
<path d="M25 22.5C25.8284 22.5 26.5 21.8284 26.5 21C26.5 20.1716 25.8284 19.5 25 19.5C24.1716 19.5 23.5 20.1716 23.5 21C23.5 21.8284 24.1716 22.5 25 22.5Z" fill="white"/>
</g>
<defs>
<clipPath id="clip0_26_1646">
<rect width="24" height="24" fill="white" transform="translate(9 9)"/>
</clipPath>
</defs>
</svg>
