<svg width="208" height="32" viewBox="0 0 208 32" fill="none" xmlns="http://www.w3.org/2000/svg">
<g clip-path="url(#clip0_25_2632)">
<path d="M31.9166 12.275C31.7071 11.627 31.1324 11.1668 30.4524 11.1055L21.2164 10.2668L17.5642 1.71853C17.2949 1.09205 16.6816 0.686523 16.0002 0.686523C15.3188 0.686523 14.7055 1.09205 14.4362 1.72L10.784 10.2668L1.54642 11.1055C0.867694 11.1682 0.294437 11.627 0.0837384 12.275C-0.12696 12.9229 0.0676247 13.6336 0.581066 14.0816L7.56245 20.2044L5.5038 29.2727C5.35316 29.9395 5.61196 30.6287 6.16519 31.0286C6.46257 31.2435 6.81047 31.3528 7.16131 31.3528C7.46381 31.3528 7.76387 31.2713 8.03316 31.1102L16.0002 26.3486L23.9642 31.1102C24.547 31.4608 25.2817 31.4288 25.8337 31.0286C26.3872 30.6275 26.6457 29.938 26.4951 29.2727L24.4364 20.2044L31.4178 14.0829C31.9312 13.6336 32.1273 12.9241 31.9166 12.275Z" fill="#FFC107"/>
</g>
<g clip-path="url(#clip1_25_2632)">
<path d="M75.9166 12.275C75.7071 11.627 75.1324 11.1668 74.4524 11.1055L65.2164 10.2668L61.5642 1.71853C61.2949 1.09205 60.6816 0.686523 60.0002 0.686523C59.3188 0.686523 58.7055 1.09205 58.4362 1.72L54.784 10.2668L45.5464 11.1055C44.8677 11.1682 44.2944 11.627 44.0837 12.275C43.873 12.9229 44.0676 13.6336 44.5811 14.0816L51.5624 20.2044L49.5038 29.2727C49.3532 29.9395 49.612 30.6287 50.1652 31.0286C50.4626 31.2435 50.8105 31.3528 51.1613 31.3528C51.4638 31.3528 51.7639 31.2713 52.0332 31.1102L60.0002 26.3486L67.9642 31.1102C68.547 31.4608 69.2817 31.4288 69.8337 31.0286C70.3872 30.6275 70.6457 29.938 70.4951 29.2727L68.4364 20.2044L75.4178 14.0829C75.9312 13.6336 76.1273 12.9241 75.9166 12.275Z" fill="#FFC107"/>
</g>
<g clip-path="url(#clip2_25_2632)">
<path opacity="0.2" d="M119.917 12.275C119.707 11.627 119.132 11.1668 118.452 11.1055L109.216 10.2668L105.564 1.71853C105.295 1.09205 104.682 0.686523 104 0.686523C103.319 0.686523 102.705 1.09205 102.436 1.72L98.784 10.2668L89.5464 11.1055C88.8677 11.1682 88.2944 11.627 88.0837 12.275C87.873 12.9229 88.0676 13.6336 88.5811 14.0816L95.5624 20.2044L93.5038 29.2727C93.3532 29.9395 93.612 30.6287 94.1652 31.0286C94.4626 31.2435 94.8105 31.3528 95.1613 31.3528C95.4638 31.3528 95.7639 31.2713 96.0332 31.1102L104 26.3486L111.964 31.1102C112.547 31.4608 113.282 31.4288 113.834 31.0286C114.387 30.6275 114.646 29.938 114.495 29.2727L112.436 20.2044L119.418 14.0829C119.931 13.6336 120.127 12.9241 119.917 12.275Z" fill="#9EA2A7"/>
</g>
<g clip-path="url(#clip3_25_2632)">
<path opacity="0.2" d="M163.917 12.275C163.707 11.627 163.132 11.1668 162.452 11.1055L153.216 10.2668L149.564 1.71853C149.295 1.09205 148.682 0.686523 148 0.686523C147.319 0.686523 146.705 1.09205 146.436 1.72L142.784 10.2668L133.546 11.1055C132.868 11.1682 132.294 11.627 132.084 12.275C131.873 12.9229 132.068 13.6336 132.581 14.0816L139.562 20.2044L137.504 29.2727C137.353 29.9395 137.612 30.6287 138.165 31.0286C138.463 31.2435 138.81 31.3528 139.161 31.3528C139.464 31.3528 139.764 31.2713 140.033 31.1102L148 26.3486L155.964 31.1102C156.547 31.4608 157.282 31.4288 157.834 31.0286C158.387 30.6275 158.646 29.938 158.495 29.2727L156.436 20.2044L163.418 14.0829C163.931 13.6336 164.127 12.9241 163.917 12.275Z" fill="#9EA2A7"/>
</g>
<g clip-path="url(#clip4_25_2632)">
<path opacity="0.2" d="M207.917 12.275C207.707 11.627 207.132 11.1668 206.452 11.1055L197.216 10.2668L193.564 1.71853C193.295 1.09205 192.682 0.686523 192 0.686523C191.319 0.686523 190.705 1.09205 190.436 1.72L186.784 10.2668L177.546 11.1055C176.868 11.1682 176.294 11.627 176.084 12.275C175.873 12.9229 176.068 13.6336 176.581 14.0816L183.562 20.2044L181.504 29.2727C181.353 29.9395 181.612 30.6287 182.165 31.0286C182.463 31.2435 182.81 31.3528 183.161 31.3528C183.464 31.3528 183.764 31.2713 184.033 31.1102L192 26.3486L199.964 31.1102C200.547 31.4608 201.282 31.4288 201.834 31.0286C202.387 30.6275 202.646 29.938 202.495 29.2727L200.436 20.2044L207.418 14.0829C207.931 13.6336 208.127 12.9241 207.917 12.275Z" fill="#9EA2A7"/>
</g>
<defs>
<clipPath id="clip0_25_2632">
<rect width="32" height="32" fill="white"/>
</clipPath>
<clipPath id="clip1_25_2632">
<rect width="32" height="32" fill="white" transform="translate(44)"/>
</clipPath>
<clipPath id="clip2_25_2632">
<rect width="32" height="32" fill="white" transform="translate(88)"/>
</clipPath>
<clipPath id="clip3_25_2632">
<rect width="32" height="32" fill="white" transform="translate(132)"/>
</clipPath>
<clipPath id="clip4_25_2632">
<rect width="32" height="32" fill="white" transform="translate(176)"/>
</clipPath>
</defs>
</svg>
