<svg width="40" height="40" viewBox="0 0 40 40" fill="none" xmlns="http://www.w3.org/2000/svg">
<circle cx="20" cy="20" r="20" fill="white"/>
<path fill-rule="evenodd" clip-rule="evenodd" d="M17.3764 28.0279L26.1628 16.6654C26.6403 16.0527 26.8101 15.3443 26.6509 14.623C26.513 13.9673 26.1097 13.3438 25.5049 12.8708L24.0299 11.6991C22.7459 10.6778 21.1541 10.7853 20.2415 11.9571L19.2546 13.2373C19.1273 13.3975 19.1591 13.634 19.3183 13.763C19.3183 13.763 21.812 15.7625 21.8651 15.8055C22.0349 15.9667 22.1622 16.1817 22.1941 16.4397C22.2471 16.9449 21.8969 17.4179 21.377 17.4824C21.1329 17.5147 20.8994 17.4394 20.7297 17.2997L18.1086 15.2142C17.9813 15.1186 17.7902 15.139 17.6841 15.268L11.4551 23.3303C11.0519 23.8355 10.9139 24.4912 11.0519 25.1255L11.8478 28.5761C11.8902 28.7589 12.0494 28.8879 12.2404 28.8879L15.7422 28.8449C16.3789 28.8341 16.9732 28.5439 17.3764 28.0279ZM22.2797 26.9533H27.9898C28.5469 26.9533 29 27.4123 29 27.9766C29 28.5421 28.5469 29 27.9898 29H22.2797C21.7226 29 21.2695 28.5421 21.2695 27.9766C21.2695 27.4123 21.7226 26.9533 22.2797 26.9533Z" fill="#2DBB54"/>
</svg>
