<svg width="55" height="55" viewBox="0 0 55 55" fill="none" xmlns="http://www.w3.org/2000/svg">
<circle cx="27.5" cy="27.5" r="27.5" fill="#0D1722"/>
<g clip-path="url(#clip0_653_15)">
<path d="M35 22H31V20C31 18.89 30.11 18 29 18H25C23.89 18 23 18.89 23 20V22H19C17.89 22 17.01 22.89 17.01 24L17 35C17 36.11 17.89 37 19 37H35C36.11 37 37 36.11 37 35V24C37 22.89 36.11 22 35 22ZM29 22H25V20H29V22Z" fill="white"/>
</g>
<defs>
<clipPath id="clip0_653_15">
<rect width="24" height="24" fill="white" transform="translate(15 16)"/>
</clipPath>
</defs>
</svg>
