<svg width="299" height="35" viewBox="0 0 299 35" fill="none" xmlns="http://www.w3.org/2000/svg">
<path d="M7.0459 24.6162L11.2939 6.67188H13.667L14.209 9.66016L9.68262 28H7.13379L7.0459 24.6162ZM4.86328 6.67188L8.37891 24.6162L8.08594 28H5.24414L0.512695 6.67188H4.86328ZM17.9443 24.543L21.416 6.67188H25.7666L21.0498 28H18.208L17.9443 24.543ZM15 6.67188L19.2773 24.6895L19.1602 28H16.6113L12.0557 9.64551L12.6416 6.67188H15ZM34.7168 28.293C33.4863 28.293 32.3828 28.0977 31.4062 27.707C30.4297 27.3066 29.5996 26.7549 28.916 26.0518C28.2422 25.3486 27.7246 24.5332 27.3633 23.6055C27.002 22.668 26.8213 21.6719 26.8213 20.6172V20.0312C26.8213 18.8301 26.9922 17.7314 27.334 16.7354C27.6758 15.7393 28.1641 14.875 28.7988 14.1426C29.4434 13.4102 30.2246 12.8486 31.1426 12.458C32.0605 12.0576 33.0957 11.8574 34.248 11.8574C35.3711 11.8574 36.3672 12.043 37.2363 12.4141C38.1055 12.7852 38.833 13.3125 39.4189 13.9961C40.0146 14.6797 40.4639 15.5 40.7666 16.457C41.0693 17.4043 41.2207 18.459 41.2207 19.6211V21.3789H28.623V18.5664H37.0752V18.2441C37.0752 17.6582 36.9678 17.1357 36.7529 16.6768C36.5479 16.208 36.2354 15.8369 35.8154 15.5635C35.3955 15.29 34.8584 15.1533 34.2041 15.1533C33.6475 15.1533 33.1689 15.2754 32.7686 15.5195C32.3682 15.7637 32.041 16.1055 31.7871 16.5449C31.543 16.9844 31.3574 17.502 31.2305 18.0977C31.1133 18.6836 31.0547 19.3281 31.0547 20.0312V20.6172C31.0547 21.252 31.1426 21.8379 31.3184 22.375C31.5039 22.9121 31.7627 23.376 32.0947 23.7666C32.4365 24.1572 32.8467 24.46 33.3252 24.6748C33.8135 24.8896 34.3652 24.9971 34.9805 24.9971C35.7422 24.9971 36.4502 24.8506 37.1045 24.5576C37.7686 24.2549 38.3398 23.8008 38.8184 23.1953L40.8691 25.4219C40.5371 25.9004 40.083 26.3594 39.5068 26.7988C38.9404 27.2383 38.2568 27.5996 37.4561 27.8828C36.6553 28.1562 35.7422 28.293 34.7168 28.293ZM48.0762 5.5V28H43.8428V5.5H48.0762ZM58.1104 24.9971C58.6279 24.9971 59.0869 24.8994 59.4873 24.7041C59.8877 24.499 60.2002 24.2158 60.4248 23.8545C60.6592 23.4834 60.7812 23.0488 60.791 22.5508H64.7607C64.751 23.6641 64.4531 24.6553 63.8672 25.5244C63.2812 26.3838 62.4951 27.0625 61.5088 27.5605C60.5225 28.0488 59.4189 28.293 58.1982 28.293C56.9678 28.293 55.8936 28.0879 54.9756 27.6777C54.0674 27.2676 53.3105 26.7012 52.7051 25.9785C52.0996 25.2461 51.6455 24.3965 51.3428 23.4297C51.04 22.4531 50.8887 21.4082 50.8887 20.2949V19.8701C50.8887 18.7471 51.04 17.7021 51.3428 16.7354C51.6455 15.7588 52.0996 14.9092 52.7051 14.1865C53.3105 13.4541 54.0674 12.8828 54.9756 12.4727C55.8838 12.0625 56.9482 11.8574 58.1689 11.8574C59.4678 11.8574 60.6055 12.1064 61.582 12.6045C62.5684 13.1025 63.3398 13.8154 63.8965 14.7432C64.4629 15.6611 64.751 16.75 64.7607 18.0098H60.791C60.7812 17.4824 60.6689 17.0039 60.4541 16.5742C60.249 16.1445 59.9463 15.8027 59.5459 15.5488C59.1553 15.2852 58.6719 15.1533 58.0957 15.1533C57.4805 15.1533 56.9775 15.2852 56.5869 15.5488C56.1963 15.8027 55.8936 16.1543 55.6787 16.6035C55.4639 17.043 55.3125 17.5459 55.2246 18.1123C55.1465 18.6689 55.1074 19.2549 55.1074 19.8701V20.2949C55.1074 20.9102 55.1465 21.501 55.2246 22.0674C55.3027 22.6338 55.4492 23.1367 55.6641 23.5762C55.8887 24.0156 56.1963 24.3623 56.5869 24.6162C56.9775 24.8701 57.4854 24.9971 58.1104 24.9971ZM66.5332 20.2363V19.9287C66.5332 18.7666 66.6992 17.6973 67.0312 16.7207C67.3633 15.7344 67.8467 14.8799 68.4814 14.1572C69.1162 13.4346 69.8975 12.873 70.8252 12.4727C71.7529 12.0625 72.8174 11.8574 74.0186 11.8574C75.2197 11.8574 76.2891 12.0625 77.2266 12.4727C78.1641 12.873 78.9502 13.4346 79.585 14.1572C80.2295 14.8799 80.7178 15.7344 81.0498 16.7207C81.3818 17.6973 81.5479 18.7666 81.5479 19.9287V20.2363C81.5479 21.3887 81.3818 22.458 81.0498 23.4443C80.7178 24.4209 80.2295 25.2754 79.585 26.0078C78.9502 26.7305 78.1689 27.292 77.2412 27.6924C76.3135 28.0928 75.249 28.293 74.0479 28.293C72.8467 28.293 71.7773 28.0928 70.8398 27.6924C69.9121 27.292 69.126 26.7305 68.4814 26.0078C67.8467 25.2754 67.3633 24.4209 67.0312 23.4443C66.6992 22.458 66.5332 21.3887 66.5332 20.2363ZM70.752 19.9287V20.2363C70.752 20.9004 70.8105 21.5205 70.9277 22.0967C71.0449 22.6729 71.2305 23.1807 71.4844 23.6201C71.748 24.0498 72.0898 24.3867 72.5098 24.6309C72.9297 24.875 73.4424 24.9971 74.0479 24.9971C74.6338 24.9971 75.1367 24.875 75.5566 24.6309C75.9766 24.3867 76.3135 24.0498 76.5674 23.6201C76.8213 23.1807 77.0068 22.6729 77.124 22.0967C77.251 21.5205 77.3145 20.9004 77.3145 20.2363V19.9287C77.3145 19.2842 77.251 18.6787 77.124 18.1123C77.0068 17.5361 76.8164 17.0283 76.5527 16.5889C76.2988 16.1396 75.9619 15.7881 75.542 15.5342C75.1221 15.2803 74.6143 15.1533 74.0186 15.1533C73.4229 15.1533 72.915 15.2803 72.4951 15.5342C72.085 15.7881 71.748 16.1396 71.4844 16.5889C71.2305 17.0283 71.0449 17.5361 70.9277 18.1123C70.8105 18.6787 70.752 19.2842 70.752 19.9287ZM88.3594 15.4316V28H84.126V12.1504H88.0957L88.3594 15.4316ZM87.7734 19.5186H86.6016C86.6016 18.415 86.7334 17.3994 86.9971 16.4717C87.2705 15.5342 87.666 14.7236 88.1836 14.04C88.7109 13.3467 89.3604 12.8096 90.1318 12.4287C90.9033 12.0479 91.7969 11.8574 92.8125 11.8574C93.5156 11.8574 94.1602 11.9648 94.7461 12.1797C95.332 12.3848 95.835 12.7119 96.2549 13.1611C96.6846 13.6006 97.0166 14.1768 97.251 14.8896C97.4854 15.5928 97.6025 16.4375 97.6025 17.4238V28H93.3838V17.8926C93.3838 17.1699 93.2861 16.6133 93.0908 16.2227C92.8955 15.832 92.6172 15.5586 92.2559 15.4023C91.9043 15.2461 91.4795 15.168 90.9814 15.168C90.4346 15.168 89.9561 15.2803 89.5459 15.5049C89.1455 15.7295 88.8135 16.042 88.5498 16.4424C88.2861 16.833 88.0908 17.292 87.9639 17.8193C87.8369 18.3467 87.7734 18.9131 87.7734 19.5186ZM97.207 19.0352L95.6982 19.2256C95.6982 18.1904 95.8252 17.2285 96.0791 16.3398C96.3428 15.4512 96.7285 14.6699 97.2363 13.9961C97.7539 13.3223 98.3936 12.7998 99.1553 12.4287C99.917 12.0479 100.796 11.8574 101.792 11.8574C102.554 11.8574 103.247 11.9697 103.872 12.1943C104.497 12.4092 105.029 12.7559 105.469 13.2344C105.918 13.7031 106.26 14.3184 106.494 15.0801C106.738 15.8418 106.86 16.7744 106.86 17.8779V28H102.627V17.8779C102.627 17.1455 102.529 16.5889 102.334 16.208C102.148 15.8174 101.875 15.5488 101.514 15.4023C101.162 15.2461 100.742 15.168 100.254 15.168C99.7461 15.168 99.3018 15.2705 98.9209 15.4756C98.54 15.6709 98.2227 15.9443 97.9688 16.2959C97.7148 16.6475 97.5244 17.0576 97.3975 17.5264C97.2705 17.9854 97.207 18.4883 97.207 19.0352ZM117.422 28.293C116.191 28.293 115.088 28.0977 114.111 27.707C113.135 27.3066 112.305 26.7549 111.621 26.0518C110.947 25.3486 110.43 24.5332 110.068 23.6055C109.707 22.668 109.526 21.6719 109.526 20.6172V20.0312C109.526 18.8301 109.697 17.7314 110.039 16.7354C110.381 15.7393 110.869 14.875 111.504 14.1426C112.148 13.4102 112.93 12.8486 113.848 12.458C114.766 12.0576 115.801 11.8574 116.953 11.8574C118.076 11.8574 119.072 12.043 119.941 12.4141C120.811 12.7852 121.538 13.3125 122.124 13.9961C122.72 14.6797 123.169 15.5 123.472 16.457C123.774 17.4043 123.926 18.459 123.926 19.6211V21.3789H111.328V18.5664H119.78V18.2441C119.78 17.6582 119.673 17.1357 119.458 16.6768C119.253 16.208 118.94 15.8369 118.521 15.5635C118.101 15.29 117.563 15.1533 116.909 15.1533C116.353 15.1533 115.874 15.2754 115.474 15.5195C115.073 15.7637 114.746 16.1055 114.492 16.5449C114.248 16.9844 114.062 17.502 113.936 18.0977C113.818 18.6836 113.76 19.3281 113.76 20.0312V20.6172C113.76 21.252 113.848 21.8379 114.023 22.375C114.209 22.9121 114.468 23.376 114.8 23.7666C115.142 24.1572 115.552 24.46 116.03 24.6748C116.519 24.8896 117.07 24.9971 117.686 24.9971C118.447 24.9971 119.155 24.8506 119.81 24.5576C120.474 24.2549 121.045 23.8008 121.523 23.1953L123.574 25.4219C123.242 25.9004 122.788 26.3594 122.212 26.7988C121.646 27.2383 120.962 27.5996 120.161 27.8828C119.36 28.1562 118.447 28.293 117.422 28.293ZM141.562 12.1504V15.1387H132.334V12.1504H141.562ZM134.619 8.23926H138.838V23.2246C138.838 23.6836 138.896 24.0352 139.014 24.2793C139.141 24.5234 139.326 24.6943 139.57 24.792C139.814 24.8799 140.122 24.9238 140.493 24.9238C140.757 24.9238 140.991 24.9141 141.196 24.8945C141.411 24.8652 141.592 24.8359 141.738 24.8066L141.753 27.9121C141.392 28.0293 141.001 28.1221 140.581 28.1904C140.161 28.2588 139.697 28.293 139.189 28.293C138.262 28.293 137.451 28.1416 136.758 27.8389C136.074 27.5264 135.547 27.0283 135.176 26.3447C134.805 25.6611 134.619 24.7627 134.619 23.6494V8.23926ZM142.91 20.2363V19.9287C142.91 18.7666 143.076 17.6973 143.408 16.7207C143.74 15.7344 144.224 14.8799 144.858 14.1572C145.493 13.4346 146.274 12.873 147.202 12.4727C148.13 12.0625 149.194 11.8574 150.396 11.8574C151.597 11.8574 152.666 12.0625 153.604 12.4727C154.541 12.873 155.327 13.4346 155.962 14.1572C156.606 14.8799 157.095 15.7344 157.427 16.7207C157.759 17.6973 157.925 18.7666 157.925 19.9287V20.2363C157.925 21.3887 157.759 22.458 157.427 23.4443C157.095 24.4209 156.606 25.2754 155.962 26.0078C155.327 26.7305 154.546 27.292 153.618 27.6924C152.69 28.0928 151.626 28.293 150.425 28.293C149.224 28.293 148.154 28.0928 147.217 27.6924C146.289 27.292 145.503 26.7305 144.858 26.0078C144.224 25.2754 143.74 24.4209 143.408 23.4443C143.076 22.458 142.91 21.3887 142.91 20.2363ZM147.129 19.9287V20.2363C147.129 20.9004 147.188 21.5205 147.305 22.0967C147.422 22.6729 147.607 23.1807 147.861 23.6201C148.125 24.0498 148.467 24.3867 148.887 24.6309C149.307 24.875 149.819 24.9971 150.425 24.9971C151.011 24.9971 151.514 24.875 151.934 24.6309C152.354 24.3867 152.69 24.0498 152.944 23.6201C153.198 23.1807 153.384 22.6729 153.501 22.0967C153.628 21.5205 153.691 20.9004 153.691 20.2363V19.9287C153.691 19.2842 153.628 18.6787 153.501 18.1123C153.384 17.5361 153.193 17.0283 152.93 16.5889C152.676 16.1396 152.339 15.7881 151.919 15.5342C151.499 15.2803 150.991 15.1533 150.396 15.1533C149.8 15.1533 149.292 15.2803 148.872 15.5342C148.462 15.7881 148.125 16.1396 147.861 16.5889C147.607 17.0283 147.422 17.5361 147.305 18.1123C147.188 18.6787 147.129 19.2842 147.129 19.9287ZM178.037 6.67188V28H173.276V6.67188H178.037ZM184.526 6.67188V10.3779H166.919V6.67188H184.526ZM192.7 24.2207V17.4238C192.7 16.9453 192.627 16.5352 192.48 16.1934C192.334 15.8516 192.104 15.583 191.792 15.3877C191.479 15.1924 191.074 15.0947 190.576 15.0947C190.156 15.0947 189.79 15.168 189.478 15.3145C189.175 15.4609 188.94 15.6709 188.774 15.9443C188.618 16.2178 188.54 16.5547 188.54 16.9551H183.97C183.97 16.2422 184.131 15.5781 184.453 14.9629C184.775 14.3477 185.234 13.8057 185.83 13.3369C186.436 12.8682 187.158 12.5068 187.998 12.2529C188.838 11.9893 189.78 11.8574 190.825 11.8574C192.065 11.8574 193.169 12.0674 194.136 12.4873C195.112 12.8975 195.884 13.5176 196.45 14.3477C197.017 15.168 197.3 16.2031 197.3 17.4531V24.0889C197.3 25.0459 197.354 25.7979 197.461 26.3447C197.578 26.8818 197.744 27.3506 197.959 27.751V28H193.345C193.13 27.541 192.969 26.9746 192.861 26.3008C192.754 25.6172 192.7 24.9238 192.7 24.2207ZM193.271 18.332L193.301 20.8516H191.03C190.522 20.8516 190.083 20.915 189.712 21.042C189.351 21.1689 189.058 21.3447 188.833 21.5693C188.608 21.7842 188.442 22.0381 188.335 22.3311C188.237 22.6143 188.188 22.9268 188.188 23.2686C188.188 23.5908 188.267 23.8838 188.423 24.1475C188.579 24.4014 188.794 24.6016 189.067 24.748C189.341 24.8945 189.658 24.9678 190.02 24.9678C190.615 24.9678 191.123 24.8506 191.543 24.6162C191.973 24.3818 192.305 24.0986 192.539 23.7666C192.773 23.4248 192.891 23.1074 192.891 22.8145L193.989 24.7188C193.813 25.1094 193.599 25.5146 193.345 25.9346C193.091 26.3447 192.769 26.7305 192.378 27.0918C191.987 27.4434 191.514 27.7314 190.957 27.9561C190.41 28.1807 189.751 28.293 188.979 28.293C187.983 28.293 187.08 28.0928 186.27 27.6924C185.459 27.2822 184.81 26.7207 184.321 26.0078C183.843 25.2949 183.604 24.4746 183.604 23.5469C183.604 22.7168 183.755 21.9795 184.058 21.335C184.36 20.6904 184.814 20.1436 185.42 19.6943C186.035 19.2451 186.807 18.9082 187.734 18.6836C188.662 18.4492 189.746 18.332 190.986 18.332H193.271ZM204.082 12.1504L206.514 16.7354L209.019 12.1504H213.823L209.502 19.8848L214.028 28H209.194L206.528 23.1074L203.877 28H199.028L203.555 19.8848L199.248 12.1504H204.082ZM220.503 12.1504V28H215.918V12.1504H220.503ZM215.64 8.04883C215.64 7.38477 215.874 6.84277 216.343 6.42285C216.812 5.99316 217.427 5.77832 218.188 5.77832C218.95 5.77832 219.565 5.99316 220.034 6.42285C220.513 6.84277 220.752 7.38477 220.752 8.04883C220.752 8.70313 220.513 9.24512 220.034 9.6748C219.565 10.0947 218.95 10.3047 218.188 10.3047C217.427 10.3047 216.812 10.0947 216.343 9.6748C215.874 9.24512 215.64 8.70313 215.64 8.04883Z" fill="#0D1722"/>
<path d="M226.318 6.67188H230.273L235.4 21.9209L240.513 6.67188H244.468L236.997 28H233.789L226.318 6.67188ZM224.033 6.67188H228.062L228.809 22.4775V28H224.033V6.67188ZM242.725 6.67188H246.768V28H241.978V22.4775L242.725 6.67188ZM249.419 20.2363V19.9287C249.419 18.7666 249.585 17.6973 249.917 16.7207C250.249 15.7344 250.737 14.8799 251.382 14.1572C252.026 13.4346 252.817 12.873 253.755 12.4727C254.692 12.0625 255.767 11.8574 256.978 11.8574C258.208 11.8574 259.292 12.0625 260.229 12.4727C261.177 12.873 261.973 13.4346 262.617 14.1572C263.262 14.8799 263.75 15.7344 264.082 16.7207C264.414 17.6973 264.58 18.7666 264.58 19.9287V20.2363C264.58 21.3887 264.414 22.458 264.082 23.4443C263.75 24.4209 263.262 25.2754 262.617 26.0078C261.973 26.7305 261.182 27.292 260.244 27.6924C259.307 28.0928 258.228 28.293 257.007 28.293C255.796 28.293 254.717 28.0928 253.77 27.6924C252.822 27.292 252.026 26.7305 251.382 26.0078C250.737 25.2754 250.249 24.4209 249.917 23.4443C249.585 22.458 249.419 21.3887 249.419 20.2363ZM254.004 19.9287V20.2363C254.004 20.8613 254.053 21.4473 254.15 21.9941C254.258 22.541 254.429 23.0195 254.663 23.4297C254.897 23.8398 255.205 24.1621 255.586 24.3965C255.977 24.6211 256.45 24.7334 257.007 24.7334C257.563 24.7334 258.032 24.6211 258.413 24.3965C258.794 24.1621 259.102 23.8398 259.336 23.4297C259.57 23.0195 259.736 22.541 259.834 21.9941C259.941 21.4473 259.995 20.8613 259.995 20.2363V19.9287C259.995 19.3135 259.941 18.7373 259.834 18.2002C259.736 17.6533 259.57 17.1699 259.336 16.75C259.102 16.3301 258.789 16.0029 258.398 15.7686C258.018 15.5342 257.544 15.417 256.978 15.417C256.431 15.417 255.967 15.5342 255.586 15.7686C255.205 16.0029 254.897 16.3301 254.663 16.75C254.429 17.1699 254.258 17.6533 254.15 18.2002C254.053 18.7373 254.004 19.3135 254.004 19.9287ZM276.211 24.4551V5.5H280.811V28H276.68L276.211 24.4551ZM266.338 20.2656V19.958C266.338 18.7568 266.47 17.6631 266.733 16.6768C267.007 15.6807 267.402 14.8262 267.92 14.1133C268.447 13.3906 269.097 12.834 269.868 12.4434C270.64 12.0527 271.523 11.8574 272.52 11.8574C273.438 11.8574 274.238 12.0625 274.922 12.4727C275.605 12.873 276.187 13.4395 276.665 14.1719C277.153 14.8945 277.549 15.749 277.852 16.7354C278.154 17.7119 278.384 18.7715 278.54 19.9141V20.4414C278.394 21.5352 278.164 22.5557 277.852 23.5029C277.549 24.4502 277.153 25.2852 276.665 26.0078C276.187 26.7207 275.601 27.2822 274.907 27.6924C274.224 28.0928 273.418 28.293 272.49 28.293C271.494 28.293 270.61 28.0928 269.839 27.6924C269.077 27.292 268.438 26.7305 267.92 26.0078C267.402 25.2852 267.007 24.4355 266.733 23.459C266.47 22.4824 266.338 21.418 266.338 20.2656ZM270.908 19.958V20.2656C270.908 20.8906 270.952 21.4717 271.04 22.0088C271.138 22.5459 271.294 23.0195 271.509 23.4297C271.724 23.8398 272.007 24.1621 272.358 24.3965C272.71 24.6211 273.14 24.7334 273.647 24.7334C274.331 24.7334 274.893 24.5771 275.332 24.2646C275.771 23.9424 276.104 23.498 276.328 22.9316C276.553 22.3652 276.67 21.7061 276.68 20.9541V19.416C276.68 18.791 276.616 18.2295 276.489 17.7314C276.362 17.2334 276.172 16.8135 275.918 16.4717C275.674 16.1299 275.366 15.8711 274.995 15.6953C274.624 15.5098 274.185 15.417 273.677 15.417C273.179 15.417 272.754 15.5342 272.402 15.7686C272.051 15.9932 271.763 16.3105 271.538 16.7207C271.323 17.1309 271.162 17.6143 271.055 18.1709C270.957 18.7178 270.908 19.3135 270.908 19.958ZM291.328 28.293C290.068 28.293 288.94 28.0928 287.944 27.6924C286.948 27.292 286.104 26.7402 285.41 26.0371C284.727 25.3242 284.204 24.5039 283.843 23.5762C283.481 22.6484 283.301 21.6572 283.301 20.6025V20.0459C283.301 18.8643 283.467 17.7754 283.799 16.7793C284.131 15.7832 284.614 14.9189 285.249 14.1865C285.894 13.4443 286.685 12.873 287.622 12.4727C288.56 12.0625 289.629 11.8574 290.83 11.8574C291.953 11.8574 292.954 12.043 293.833 12.4141C294.712 12.7754 295.454 13.2979 296.06 13.9814C296.665 14.6553 297.124 15.4707 297.437 16.4277C297.759 17.375 297.92 18.4395 297.92 19.6211V21.4961H285.146V18.5518H293.438V18.2002C293.438 17.6436 293.335 17.1553 293.13 16.7354C292.935 16.3154 292.642 15.9932 292.251 15.7686C291.87 15.5342 291.387 15.417 290.801 15.417C290.244 15.417 289.78 15.5342 289.409 15.7686C289.038 16.0029 288.74 16.335 288.516 16.7646C288.301 17.1846 288.145 17.6777 288.047 18.2441C287.949 18.8008 287.9 19.4014 287.9 20.0459V20.6025C287.9 21.2178 287.983 21.7793 288.149 22.2871C288.315 22.7949 288.56 23.2295 288.882 23.5908C289.204 23.9521 289.595 24.2354 290.054 24.4404C290.513 24.6455 291.035 24.748 291.621 24.748C292.344 24.748 293.032 24.6113 293.687 24.3379C294.341 24.0547 294.907 23.6152 295.386 23.0195L297.524 25.4658C297.202 25.9346 296.748 26.3887 296.162 26.8281C295.586 27.2578 294.893 27.6094 294.082 27.8828C293.271 28.1562 292.354 28.293 291.328 28.293Z" fill="#2DBB54"/>
<circle cx="218.5" cy="7.5" r="3.5" fill="#2DBB54"/>
</svg>
