<svg width="42" height="42" viewBox="0 0 42 42" fill="none" xmlns="http://www.w3.org/2000/svg">
<g clip-path="url(#clip0_1358_2)">
<path d="M35 0H7C3.13401 0 0 3.13401 0 7V35C0 38.866 3.13401 42 7 42H35C38.866 42 42 38.866 42 35V7C42 3.13401 38.866 0 35 0Z" fill="#9EA2A7" fill-opacity="0.2"/>
<g clip-path="url(#clip1_1358_2)">
<path d="M30.929 12.8987C30.839 12.8457 30.7372 12.8161 30.6328 12.8126C30.5285 12.8091 30.4249 12.8318 30.3316 12.8787C30.2384 12.9257 30.1584 12.9953 30.099 13.0811C30.0397 13.1669 30.0027 13.2662 29.9915 13.37C29.969 13.575 29.9341 13.7799 29.8903 13.995C28.6666 19.5487 26.209 22.25 22.3753 22.25H16.7503C16.6064 22.2502 16.467 22.3001 16.3557 22.3912C16.2443 22.4823 16.1678 22.609 16.139 22.7499L14.264 31.5387L13.9291 33.7762C13.7365 34.7937 14.4051 35.7747 15.4225 35.9673C15.5348 35.9885 15.6486 35.9994 15.7628 36H19.5253C20.3877 36.0026 21.1395 35.414 21.344 34.5762L22.864 28.5H26.1253C29.974 28.5 32.6341 25.4312 33.6153 19.8587C34.263 17.2053 33.1914 14.429 30.929 12.8987Z" fill="#03A9F4"/>
<path d="M29.7503 8.22755C29.1396 7.53484 28.3899 6.97849 27.55 6.59471C26.71 6.21092 25.7987 6.00831 24.8753 6.00005H14.5253C12.9764 5.99173 11.6577 7.12499 11.4328 8.65751L8.21909 30.0963C8.06516 31.1203 8.77045 32.0752 9.7945 32.2292C9.88743 32.2432 9.98135 32.2501 10.0753 32.25H14.8753C15.0192 32.2498 15.1586 32.1999 15.2699 32.1088C15.3813 32.0177 15.4578 31.891 15.4866 31.7501L17.2554 23.5001H22.3804C26.8279 23.5001 29.7666 20.3913 31.1166 14.25C31.1709 14.0052 31.2126 13.7579 31.2416 13.5088C31.3964 12.573 31.343 11.6146 31.0852 10.7018C30.8275 9.78894 30.3717 8.94416 29.7503 8.22755Z" fill="#283593"/>
</g>
</g>
<defs>
<clipPath id="clip0_1358_2">
<rect width="42" height="42" fill="white"/>
</clipPath>
<clipPath id="clip1_1358_2">
<rect width="30" height="30" fill="white" transform="translate(6 6)"/>
</clipPath>
</defs>
</svg>
