<svg width="42" height="42" viewBox="0 0 42 42" fill="none" xmlns="http://www.w3.org/2000/svg">
<g clip-path="url(#clip0_1358_73)">
<path d="M35 0H7C3.13401 0 0 3.13401 0 7V35C0 38.866 3.13401 42 7 42H35C38.866 42 42 38.866 42 35V7C42 3.13401 38.866 0 35 0Z" fill="#9EA2A7" fill-opacity="0.2"/>
<path d="M17.3908 16.3259L13.4638 25.6966H10.9007L8.96953 18.219C8.85064 17.7579 8.74904 17.5901 8.39256 17.3942C7.80861 17.0785 6.84809 16.7824 6 16.598L6.05936 16.326H10.1831C10.7091 16.326 11.1819 16.6768 11.3008 17.2815L12.3219 22.7051L14.844 16.326L17.3908 16.3259ZM27.4306 22.6358C27.442 20.1639 24.0103 20.0294 24.035 18.9235C24.0417 18.586 24.3616 18.2288 25.0622 18.1386C25.4102 18.0923 26.3677 18.0584 27.4529 18.5566L27.8782 16.5704C27.2943 16.3585 26.5438 16.1555 25.611 16.1555C23.2151 16.1555 21.5285 17.4299 21.5143 19.2533C21.4986 20.6016 22.7176 21.3541 23.6371 21.8031C24.5813 22.2626 24.897 22.556 24.8937 22.9681C24.8875 23.597 24.1403 23.8719 23.4434 23.8843C22.2244 23.9033 21.5173 23.5549 20.9527 23.2919L20.5138 25.3464C21.0794 25.606 22.1266 25.8315 23.2103 25.8448C25.7568 25.8447 27.4226 24.5839 27.4306 22.6358ZM33.7575 25.6966H36L34.0433 16.326H31.9731C31.5079 16.326 31.1157 16.5973 30.941 17.0129L27.3057 25.6966H29.8502L30.3553 24.2972H33.4655L33.7575 25.6966ZM31.0526 22.3765L32.3291 18.858L33.0635 22.3765H31.0526ZM20.855 16.3259L18.8493 25.6966H16.4248L18.4309 16.3259H20.855Z" fill="#1A2ADF"/>
</g>
<defs>
<clipPath id="clip0_1358_73">
<rect width="42" height="42" fill="white"/>
</clipPath>
</defs>
</svg>
