<svg width="375" height="555" viewBox="0 0 375 555" fill="none" xmlns="http://www.w3.org/2000/svg">
<g clip-path="url(#clip0_32_323)">
<path d="M465 0H-90V555H465V0Z" fill="#7534E0"/>
<path opacity="0.57" d="M465 0H-90V555H465V0Z" fill="#7534E0"/>
<g opacity="0.16">
<path opacity="0.16" d="M-115.53 11.8769L187.5 261.294L-90.7768 -17.2051L-115.53 11.8769Z" fill="#FF7D7D"/>
<path opacity="0.16" d="M-154.269 68.2649L187.5 261.294L-134.955 35.4089L-154.269 68.2649Z" fill="#FF7D7D"/>
<path opacity="0.16" d="M-182.574 130.536L187.5 261.294L-169.254 94.7939L-182.574 130.536Z" fill="#FF7D7D"/>
<path opacity="0.16" d="M-199.668 196.803L187.5 261.294L-192.786 159.285L-199.668 196.803Z" fill="#FF7D7D"/>
<path opacity="0.16" d="M-204.996 264.957L187.5 261.294L-204.663 226.884L-204.996 264.957Z" fill="#FF7D7D"/>
<path opacity="0.16" d="M-198.336 333.111L187.5 261.294L-204.663 295.482L-198.336 333.111Z" fill="#FF7D7D"/>
<path opacity="0.16" d="M-180.021 399.045L187.5 261.294L-192.786 363.081L-180.021 399.045Z" fill="#FF7D7D"/>
<path opacity="0.16" d="M-150.495 460.761L187.5 261.294L-169.365 427.572L-150.495 460.761Z" fill="#FF7D7D"/>
<path opacity="0.16" d="M-110.757 516.372L187.5 261.294L-135.066 487.068L-110.757 516.372Z" fill="#FF7D7D"/>
<path opacity="0.16" d="M-61.917 564.324L187.5 261.294L-90.999 539.571L-61.917 564.324Z" fill="#FF7D7D"/>
<path opacity="0.16" d="M-5.52926 603.063L187.5 261.294L-38.3853 583.749L-5.52926 603.063Z" fill="#FF7D7D"/>
<path opacity="0.16" d="M56.742 631.368L187.5 261.294L21 618.048L56.742 631.368Z" fill="#FF7D7D"/>
<path opacity="0.16" d="M123.009 648.462L187.5 261.294L85.4907 641.58L123.009 648.462Z" fill="#FF7D7D"/>
<path opacity="0.16" d="M191.163 653.79L187.5 261.294L153.09 653.457L191.163 653.79Z" fill="#FF7D7D"/>
<path opacity="0.16" d="M259.317 647.13L187.5 261.294L221.688 653.568L259.317 647.13Z" fill="#FF7D7D"/>
<path opacity="0.16" d="M325.251 628.815L187.5 261.294L289.287 641.58L325.251 628.815Z" fill="#FF7D7D"/>
<path opacity="0.16" d="M386.967 599.4L187.5 261.294L353.778 618.159L386.967 599.4Z" fill="#FF7D7D"/>
<path opacity="0.16" d="M442.578 559.551L187.5 261.294L413.163 583.86L442.578 559.551Z" fill="#FF7D7D"/>
<path opacity="0.16" d="M490.53 510.711L187.5 261.294L465.777 539.793L490.53 510.711Z" fill="#FF7D7D"/>
<path opacity="0.16" d="M529.269 454.323L187.5 261.294L509.955 487.29L529.269 454.323Z" fill="#FF7D7D"/>
<path opacity="0.16" d="M557.574 392.052L187.5 261.294L544.254 427.794L557.574 392.052Z" fill="#FF7D7D"/>
<path opacity="0.16" d="M574.668 325.785L187.5 261.294L567.786 363.303L574.668 325.785Z" fill="#FF7D7D"/>
<path opacity="0.16" d="M579.996 257.631L187.5 261.294L579.663 295.704L579.996 257.631Z" fill="#FF7D7D"/>
<path opacity="0.16" d="M573.336 189.477L187.5 261.294L579.663 227.106L573.336 189.477Z" fill="#FF7D7D"/>
<path opacity="0.16" d="M555.021 123.654L187.5 261.294L567.786 159.507L555.021 123.654Z" fill="#FF7D7D"/>
<path opacity="0.16" d="M525.495 61.8269L187.5 261.294L544.365 95.0159L525.495 61.8269Z" fill="#FF7D7D"/>
<path opacity="0.16" d="M485.757 6.21594L187.5 261.294L510.066 35.6309L485.757 6.21594Z" fill="#FF7D7D"/>
<path opacity="0.16" d="M436.917 -41.7361L187.5 261.294L465.999 -16.9831L436.917 -41.7361Z" fill="#FF7D7D"/>
<path opacity="0.16" d="M380.529 -80.475L187.5 261.294L413.385 -61.161L380.529 -80.475Z" fill="#FF7D7D"/>
<path opacity="0.16" d="M318.258 -108.78L187.5 261.294L354 -95.46L318.258 -108.78Z" fill="#FF7D7D"/>
<path opacity="0.16" d="M251.991 -125.874L187.5 261.294L289.509 -118.881L251.991 -125.874Z" fill="#FF7D7D"/>
<path opacity="0.16" d="M183.837 -131.202L187.5 261.294L221.91 -130.869L183.837 -131.202Z" fill="#FF7D7D"/>
<path opacity="0.16" d="M115.683 -124.542L187.5 261.294L153.312 -130.869L115.683 -124.542Z" fill="#FF7D7D"/>
<path opacity="0.16" d="M49.749 -106.227L187.5 261.294L85.713 -118.992L49.749 -106.227Z" fill="#FF7D7D"/>
<path opacity="0.16" d="M-11.9673 -76.701L187.5 261.294L21.2217 -95.571L-11.9673 -76.701Z" fill="#FF7D7D"/>
<path opacity="0.16" d="M-67.5781 -36.963L187.5 261.294L-38.1631 -61.272L-67.5781 -36.963Z" fill="#FF7D7D"/>
</g>
<path opacity="0.32" d="M192.075 352.014C258.629 352.014 312.582 298.061 312.582 231.507C312.582 164.953 258.629 111 192.075 111C125.52 111 71.5674 164.953 71.5674 231.507C71.5674 298.061 125.52 352.014 192.075 352.014Z" fill="url(#paint0_radial_32_323)"/>
<path d="M172.985 153.388C172.985 153.388 161.807 123.497 180.709 118.536C199.61 113.575 197.099 148.427 188.872 154.393C180.583 160.358 177.757 158.6 177.757 158.6C177.757 158.6 188.621 126.636 183.534 128.646C178.448 130.593 176.062 151.064 176.062 151.064L172.985 153.388Z" fill="#1E7860"/>
<path d="M159.294 152.634C159.294 152.634 172.859 140.389 175.684 147.359C178.573 154.267 176.689 161.3 176.689 161.3L159.294 152.634Z" fill="#2AA685"/>
<path d="M143.532 162.368C143.532 162.368 105.854 168.271 106.294 149.62C106.733 130.969 118.1 126.197 130.345 131.911C142.528 137.626 166.704 149.746 166.014 155.774C165.386 161.74 162.497 160.17 162.497 160.17C162.497 160.17 127.08 138.065 123.375 145.35C119.67 152.572 150.942 157.784 150.942 157.784L143.532 162.368Z" fill="#2AA685"/>
<path d="M196.785 154.393C196.785 154.393 213.74 186.67 228.686 189.057C243.631 191.443 242.564 193.139 242.564 193.139L259.644 184.473C259.644 184.473 225.734 168.711 224.604 159.04C223.473 149.432 218.073 146.167 218.073 146.167L196.785 154.393Z" fill="#1E7860"/>
<path d="M255.06 165.257L179.138 194.897L113.641 211.977L167.332 171.285L255.06 165.257Z" fill="#E09C5A"/>
<path d="M103.217 187.235L113.642 211.977L171.289 179.197L255.06 165.257L252.36 142.336L159.295 152.634L103.217 187.235Z" fill="#FFB166"/>
<path d="M170.85 179.511L171.289 179.197L255.06 165.257L252.36 142.336L159.295 152.634L170.85 179.511Z" fill="#EBCB49"/>
<path d="M123.626 174.676C123.626 174.676 125.573 192.448 112.26 200.234C99.0096 208.084 86.9526 216.31 86.9526 216.31L111.757 219.827C111.757 219.827 138.697 203.5 140.456 187.424C142.214 171.285 137.881 165.822 137.881 165.822L123.626 174.676Z" fill="#2AA685"/>
<path d="M121.743 267.741V347.932L192.954 379.268L259.017 357.289L264.166 267.741L192.954 254.993L121.743 267.741Z" fill="#EBCB49"/>
<path d="M192.954 254.993L121.743 267.741V347.932L192.954 379.268V289.092V254.993Z" fill="#FFB166"/>
<path d="M121.743 267.741L192.954 289.092L264.166 267.741L192.954 254.993L121.743 267.741Z" fill="#E09C5A"/>
<path d="M121.743 267.741L192.954 289.092V254.993L121.743 267.741Z" fill="#C98D51"/>
<path d="M222.783 280.112L224.164 368.907L244.95 361.999L243.317 274.021L222.783 280.112Z" fill="#2AA685"/>
<path d="M145.291 274.774L139.451 355.657L158.416 364.009L164.633 280.552L145.291 274.774Z" fill="#238C70"/>
<path d="M277.479 219.45C277.479 219.45 282.503 206.954 285.643 209.089C288.782 211.287 283.696 216.938 277.479 219.45Z" fill="#A0D461"/>
<path d="M294.623 178.695C294.623 178.695 299.646 166.198 302.786 168.334C305.926 170.531 300.839 176.183 294.623 178.695Z" fill="#A0D461"/>
<path d="M294.497 234.145C294.497 234.145 302.849 229.058 303.728 231.696C304.607 234.333 299.206 235.401 294.497 234.145Z" fill="#2AA685"/>
<path d="M286.458 254.868C286.458 254.868 295.878 252.293 296.004 255.056C296.129 257.882 290.666 257.379 286.458 254.868Z" fill="#A0D461"/>
<path d="M250.979 249.404C250.979 249.404 257.384 241.994 259.017 244.255C260.649 246.453 255.877 249.153 250.979 249.404Z" fill="#2AA685"/>
<path d="M247.901 224.662C247.901 224.662 251.418 215.557 253.741 217.064C256.065 218.634 252.423 222.778 247.901 224.662Z" fill="#A0D461"/>
<path d="M267.431 193.075C267.431 193.075 270.948 183.97 273.271 185.477C275.595 187.047 271.953 191.191 267.431 193.075Z" fill="#2AA685"/>
<path d="M297.26 196.969C297.26 196.969 300.776 187.863 303.1 189.371C305.423 190.94 301.781 195.085 297.26 196.969Z" fill="#2AA685"/>
<path d="M101.02 242.936C101.02 242.936 90.0303 235.212 88.586 238.666C87.0789 242.245 94.4261 244.192 101.02 242.936Z" fill="#2AA685"/>
<path d="M94.7396 264.475C94.7396 264.475 85.0061 264.789 85.6341 267.427C86.3249 270.127 91.4114 268.118 94.7396 264.475Z" fill="#A0D461"/>
<path d="M74.8334 286.957C74.8334 286.957 65.0999 287.271 65.7279 289.908C66.4186 292.608 71.568 290.599 74.8334 286.957Z" fill="#2AA685"/>
<path d="M117.912 279.358C117.912 279.358 108.304 281.054 109.371 283.629C110.376 286.203 115.211 283.377 117.912 279.358Z" fill="#2AA685"/>
<path d="M99.0104 300.27C99.0104 300.27 89.5281 302.719 90.784 305.168C92.04 307.68 96.6241 304.54 99.0104 300.27Z" fill="#A0D461"/>
<path d="M133.423 252.105C133.423 252.105 124.066 249.404 123.878 252.167C123.689 254.93 129.215 254.554 133.423 252.105Z" fill="#A0D461"/>
<path d="M128.65 231.256C128.65 231.256 120.738 225.542 119.608 228.053C118.54 230.628 123.878 232.135 128.65 231.256Z" fill="#2AA685"/>
<path d="M79.4174 208.649C79.4174 208.649 71.5049 202.935 70.3746 205.446C69.307 208.021 74.6448 209.528 79.4174 208.649Z" fill="#2AA685"/>
<path d="M72.1959 234.835C72.1959 234.835 64.2835 229.121 63.1532 231.633C62.0228 234.145 67.3606 235.652 72.1959 234.835Z" fill="#A0D461"/>
<path d="M184.351 149.871C184.351 149.871 209.595 175.869 220.208 177.188C230.82 178.569 244.95 173.42 244.95 173.42L211.228 146.103L184.351 149.871Z" fill="#2AA685"/>
</g>
<defs>
<radialGradient id="paint0_radial_32_323" cx="0" cy="0" r="1" gradientUnits="userSpaceOnUse" gradientTransform="translate(192.07 231.501) scale(120.496 120.496)">
<stop stop-color="white"/>
<stop offset="1" stop-color="white" stop-opacity="0"/>
</radialGradient>
<clipPath id="clip0_32_323">
<rect width="555" height="555" fill="white" transform="translate(-90)"/>
</clipPath>
</defs>
</svg>
