<svg width="42" height="42" viewBox="0 0 42 42" fill="none" xmlns="http://www.w3.org/2000/svg">
<rect width="42" height="42" rx="7" fill="#9EA2A7" fill-opacity="0.2"/>
<g clip-path="url(#clip0_25_447)">
<path d="M36 21C36 25.9524 32 30 27 30C22.0476 30 18 25.9524 18 21C18 16.0476 22 12 26.9524 12C32 12 36 16.0476 36 21Z" fill="#FFB600"/>
<path d="M27 12C31.9524 12 36 16.0476 36 21C36 25.9524 32 30 27 30C22.0476 30 18 25.9524 18 21" fill="#F7981D"/>
<path d="M27 12C31.9524 12 36 16.0476 36 21C36 25.9524 32 30 27 30" fill="#FF8500"/>
<path d="M14.9048 12C10 12.0476 6 16.0476 6 21C6 25.9524 10 30 15 30C17.3333 30 19.4286 29.0952 21.0476 27.6667C21.381 27.381 21.6667 27.0476 21.9524 26.7143H20.0952C19.8571 26.4286 19.619 26.0952 19.4286 25.8095H22.619C22.8095 25.5238 23 25.1905 23.1429 24.8571H18.9048C18.7619 24.5714 18.619 24.2381 18.5238 23.9048H23.4762C23.7619 23 23.9524 22.0476 23.9524 21.0476C23.9524 20.381 23.8571 19.7619 23.7619 19.1429H18.2381C18.2857 18.8095 18.381 18.5238 18.4762 18.1905H23.4286C23.3333 17.8571 23.1905 17.5238 23.0476 17.2381H18.8571C19 16.9048 19.1905 16.619 19.381 16.2857H22.5714C22.381 15.9524 22.1429 15.619 21.8571 15.3333H20.0952C20.381 15 20.6667 14.7143 21 14.4286C19.4286 12.9524 17.2857 12.0952 14.9524 12.0952C14.9524 12 14.9524 12 14.9048 12Z" fill="#FF5050"/>
<path d="M6 21C6 25.9524 10 30 15 30C17.3333 30 19.4286 29.0952 21.0476 27.6666C21.381 27.3809 21.6667 27.0476 21.9524 26.7143H20.0952C19.8571 26.4286 19.619 26.0952 19.4286 25.8095H22.619C22.8095 25.5238 23 25.1905 23.1429 24.8571H18.9048C18.7619 24.5714 18.619 24.2381 18.5238 23.9047H23.4762C23.7619 23 23.9524 22.0476 23.9524 21.0476C23.9524 20.3809 23.8571 19.7619 23.7619 19.1428H18.2381C18.2857 18.8095 18.381 18.5238 18.4762 18.1905H23.4286C23.3333 17.8571 23.1905 17.5238 23.0476 17.2381H18.8571C19 16.9047 19.1905 16.619 19.381 16.2857H22.5714C22.381 15.9524 22.1429 15.619 21.8571 15.3333H20.0952C20.381 15 20.6667 14.7143 21 14.4285C19.4286 12.9524 17.2857 12.0952 14.9524 12.0952H14.9048" fill="#E52836"/>
<path d="M15 30C17.3334 30 19.4286 29.0952 21.0476 27.6666C21.381 27.3809 21.6667 27.0476 21.9524 26.7143H20.0953C19.8572 26.4286 19.6191 26.0952 19.4286 25.8095H22.6191C22.8095 25.5238 23 25.1905 23.1429 24.8571H18.9048C18.7619 24.5714 18.6191 24.2381 18.5238 23.9047H23.4762C23.7619 23 23.9524 22.0476 23.9524 21.0476C23.9524 20.3809 23.8572 19.7619 23.7619 19.1428H18.2381C18.2857 18.8095 18.381 18.5238 18.4762 18.1905H23.4286C23.3334 17.8571 23.1905 17.5238 23.0476 17.2381H18.8572C19 16.9047 19.1905 16.619 19.381 16.2857H22.5715C22.381 15.9524 22.1429 15.619 21.8572 15.3333H20.0953C20.381 15 20.6667 14.7143 21 14.4285C19.4286 12.9524 17.2857 12.0952 14.9524 12.0952H14.9048" fill="#CB2026"/>
<path d="M18.1904 23.2858L18.3333 22.4763C18.2856 22.4763 18.1904 22.5239 18.0952 22.5239C17.7618 22.5239 17.7142 22.3334 17.7618 22.2382L18.0475 20.5715H18.5714L18.7142 19.6668H18.238L18.3333 19.0953H17.3809C17.3809 19.0953 16.8094 22.2382 16.8094 22.6191C16.8094 23.1906 17.1428 23.4287 17.5714 23.4287C17.8571 23.4287 18.0952 23.3334 18.1904 23.2858Z" fill="white"/>
<path d="M18.5237 21.762C18.5237 23.0954 19.4284 23.4287 20.1904 23.4287C20.9046 23.4287 21.1904 23.2859 21.1904 23.2859L21.3808 22.3811C21.3808 22.3811 20.857 22.6192 20.3808 22.6192C19.3332 22.6192 19.5237 21.8573 19.5237 21.8573H21.4761C21.4761 21.8573 21.6189 21.2382 21.6189 21.0001C21.6189 20.3811 21.2856 19.6192 20.238 19.6192C19.238 19.5239 18.5237 20.5716 18.5237 21.762ZM20.1904 20.3811C20.7142 20.3811 20.6189 21.0001 20.6189 21.0478H19.5713C19.5713 21.0001 19.6665 20.3811 20.1904 20.3811Z" fill="white"/>
<path d="M26.2381 23.2858L26.4285 22.2382C26.4285 22.2382 25.9524 22.4763 25.619 22.4763C24.9524 22.4763 24.6666 21.9525 24.6666 21.381C24.6666 20.2382 25.2381 19.6191 25.9047 19.6191C26.3809 19.6191 26.7619 19.9048 26.7619 19.9048L26.9047 18.9048C26.9047 18.9048 26.3333 18.6667 25.8095 18.6667C24.7143 18.6667 23.619 19.6191 23.619 21.4286C23.619 22.6191 24.1904 23.4286 25.3333 23.4286C25.7143 23.4286 26.2381 23.2858 26.2381 23.2858Z" fill="white"/>
<path d="M12.9523 19.5238C12.2857 19.5238 11.8095 19.7143 11.8095 19.7143L11.6666 20.5238C11.6666 20.5238 12.0952 20.3333 12.7143 20.3333C13.0476 20.3333 13.3333 20.3809 13.3333 20.6667C13.3333 20.8571 13.2857 20.9048 13.2857 20.9048C13.2857 20.9048 13 20.9048 12.8571 20.9048C12.0476 20.9048 11.1428 21.2381 11.1428 22.3333C11.1428 23.1905 11.7143 23.3809 12.0476 23.3809C12.7142 23.3809 13 22.9524 13.0476 22.9524L13 23.3333H13.8571L14.2381 20.7143C14.2381 19.5714 13.2857 19.5238 12.9523 19.5238ZM13.1428 21.6667C13.1428 21.8095 13.0476 22.5714 12.4762 22.5714C12.1904 22.5714 12.0952 22.3333 12.0952 22.1905C12.0952 21.9524 12.2381 21.619 12.9523 21.619C13.0952 21.6667 13.1428 21.6667 13.1428 21.6667Z" fill="white"/>
<path d="M15.1427 23.381C15.3808 23.381 16.5713 23.4286 16.5713 22.1429C16.5713 20.9524 15.4284 21.1905 15.4284 20.7143C15.4284 20.4762 15.6189 20.381 15.9522 20.381C16.0951 20.381 16.6189 20.4286 16.6189 20.4286L16.7618 19.5714C16.7618 19.5714 16.4284 19.4762 15.857 19.4762C15.1427 19.4762 14.4284 19.7619 14.4284 20.7143C14.4284 21.8095 15.6189 21.7143 15.6189 22.1429C15.6189 22.4286 15.2856 22.4762 15.0475 22.4762C14.6189 22.4762 14.1903 22.3333 14.1903 22.3333L14.0475 23.1905C14.0951 23.2857 14.3332 23.381 15.1427 23.381Z" fill="white"/>
<path d="M34.1427 18.762L33.9523 20.0477C33.9523 20.0477 33.5713 19.5715 33.0475 19.5715C32.1904 19.5715 31.4285 20.6191 31.4285 21.8572C31.4285 22.6191 31.8094 23.4286 32.6189 23.4286C33.1904 23.4286 33.5237 23.0477 33.5237 23.0477L33.4761 23.381H34.4285L35.1427 18.8096L34.1427 18.762ZM33.7142 21.2858C33.7142 21.8096 33.4761 22.4762 32.9523 22.4762C32.6189 22.4762 32.4285 22.1905 32.4285 21.7143C32.4285 20.9524 32.7618 20.4762 33.1904 20.4762C33.5237 20.4762 33.7142 20.7143 33.7142 21.2858Z" fill="white"/>
<path d="M7.76182 23.3334L8.33325 19.9048L8.42848 23.3334H9.09515L10.3332 19.9048L9.80944 23.3334H10.8094L11.5713 18.762H9.99991L9.04753 21.5715L8.99991 18.762H7.61896L6.85706 23.3334H7.76182Z" fill="white"/>
<path d="M22.5237 23.3334C22.8094 21.762 22.857 20.4763 23.5237 20.7144C23.6189 20.0953 23.7618 19.8572 23.857 19.6191C23.857 19.6191 23.8094 19.6191 23.6665 19.6191C23.238 19.6191 22.9046 20.1906 22.9046 20.1906L22.9999 19.6668H22.0951L21.4761 23.381H22.5237V23.3334Z" fill="white"/>
<path d="M28.4284 19.5238C27.7618 19.5238 27.2856 19.7143 27.2856 19.7143L27.1427 20.5238C27.1427 20.5238 27.5713 20.3333 28.1903 20.3333C28.5237 20.3333 28.8094 20.3809 28.8094 20.6667C28.8094 20.8571 28.7618 20.9048 28.7618 20.9048C28.7618 20.9048 28.476 20.9048 28.3332 20.9048C27.5237 20.9048 26.6189 21.2381 26.6189 22.3333C26.6189 23.1905 27.1903 23.3809 27.5237 23.3809C28.1903 23.3809 28.476 22.9524 28.5237 22.9524L28.476 23.3333H29.3332L29.7141 20.7143C29.7618 19.5714 28.7618 19.5238 28.4284 19.5238ZM28.6665 21.6667C28.6665 21.8095 28.5713 22.5714 27.9999 22.5714C27.7141 22.5714 27.6189 22.3333 27.6189 22.1905C27.6189 21.9524 27.7618 21.619 28.476 21.619C28.6189 21.6667 28.6189 21.6667 28.6665 21.6667Z" fill="white"/>
<path d="M30.5237 23.3334C30.8094 21.762 30.857 20.4763 31.5237 20.7144C31.6189 20.0953 31.7618 19.8572 31.857 19.6191C31.857 19.6191 31.8094 19.6191 31.6665 19.6191C31.238 19.6191 30.9046 20.1906 30.9046 20.1906L30.9999 19.6668H30.0951L29.4761 23.381H30.5237V23.3334Z" fill="white"/>
<path d="M16.7142 22.6191C16.7142 23.1906 17.0476 23.4287 17.4761 23.4287C17.8095 23.4287 18.0952 23.3334 18.1904 23.2858L18.3333 22.4763C18.2857 22.4763 18.1904 22.5239 18.0952 22.5239C17.7619 22.5239 17.7142 22.3334 17.7619 22.2382L18.0476 20.5715H18.5714L18.7142 19.6668H18.238L18.3333 19.0953" fill="#DCE5E5"/>
<path d="M19 21.762C19 23.0954 19.4286 23.4287 20.1905 23.4287C20.9048 23.4287 21.1905 23.2859 21.1905 23.2859L21.3809 22.3811C21.3809 22.3811 20.8571 22.6192 20.3809 22.6192C19.3333 22.6192 19.5238 21.8573 19.5238 21.8573H21.4762C21.4762 21.8573 21.619 21.2382 21.619 21.0001C21.619 20.3811 21.2857 19.6192 20.2381 19.6192C19.2381 19.5239 19 20.5716 19 21.762ZM20.1905 20.3811C20.7143 20.3811 20.8095 21.0001 20.8095 21.0478H19.5714C19.5714 21.0001 19.6667 20.3811 20.1905 20.3811Z" fill="#DCE5E5"/>
<path d="M26.2379 23.2858L26.4284 22.2382C26.4284 22.2382 25.9522 22.4763 25.6189 22.4763C24.9522 22.4763 24.6665 21.9525 24.6665 21.381C24.6665 20.2382 25.2379 19.6191 25.9046 19.6191C26.3808 19.6191 26.7618 19.9048 26.7618 19.9048L26.9046 18.9048C26.9046 18.9048 26.3332 18.6667 25.8094 18.6667C24.7141 18.6667 24.0951 19.6191 24.0951 21.4286C24.0951 22.6191 24.1903 23.4286 25.3332 23.4286C25.7141 23.4286 26.2379 23.2858 26.2379 23.2858Z" fill="#DCE5E5"/>
<path d="M11.6666 20.5715C11.6666 20.5715 12.0952 20.381 12.7143 20.381C13.0476 20.381 13.3333 20.4287 13.3333 20.7144C13.3333 20.9049 13.2857 20.9525 13.2857 20.9525C13.2857 20.9525 13 20.9525 12.8571 20.9525C12.0476 20.9525 11.1428 21.2858 11.1428 22.381C11.1428 23.2382 11.7143 23.4287 12.0476 23.4287C12.7142 23.4287 13 23.0001 13.0476 23.0001L13 23.381H13.8571L14.2381 20.762C14.2381 19.6668 13.2857 19.6191 12.9047 19.6191L11.6666 20.5715ZM13.619 21.6668C13.619 21.8096 13.0476 22.5715 12.4762 22.5715C12.1904 22.5715 12.0952 22.3334 12.0952 22.1906C12.0952 21.9525 12.2381 21.6191 12.9523 21.6191C13.0952 21.6668 13.619 21.6668 13.619 21.6668Z" fill="#DCE5E5"/>
<path d="M14.0952 23.2857C14.0952 23.2857 14.3809 23.381 15.1905 23.381C15.4285 23.381 16.619 23.4286 16.619 22.1429C16.619 20.9524 15.4762 21.1905 15.4762 20.7143C15.4762 20.4762 15.6666 20.381 16 20.381C16.1428 20.381 16.6666 20.4286 16.6666 20.4286L16.8095 19.5714C16.8095 19.5714 16.4762 19.4762 15.9047 19.4762C15.1905 19.4762 14.9524 19.7619 14.9524 20.7143C14.9524 21.8095 15.6666 21.7143 15.6666 22.1429C15.6666 22.4286 15.3333 22.4762 15.0952 22.4762" fill="#DCE5E5"/>
<path d="M33.9523 20.0477C33.9523 20.0477 33.5714 19.5715 33.0476 19.5715C32.1904 19.5715 31.9047 20.6191 31.9047 21.8572C31.9047 22.6191 31.8095 23.4286 32.619 23.4286C33.1904 23.4286 33.5238 23.0477 33.5238 23.0477L33.4761 23.381H34.4285L35.1428 18.8096L33.9523 20.0477ZM33.9047 21.2858C33.9047 21.8096 33.4761 22.4762 32.9523 22.4762C32.619 22.4762 32.4285 22.1905 32.4285 21.7143C32.4285 20.9524 32.7618 20.4762 33.1904 20.4762C33.5238 20.4762 33.9047 20.7143 33.9047 21.2858Z" fill="#DCE5E5"/>
<path d="M7.76182 23.3334L8.33325 19.9048L8.42848 23.3334H9.09515L10.3332 19.9048L9.80944 23.3334H10.8094L11.5713 18.762H10.3809L9.04753 21.5715L8.99991 18.762H8.4761L6.85706 23.3334H7.76182Z" fill="#DCE5E5"/>
<path d="M21.5238 23.3334H22.5238C22.8095 21.762 22.8571 20.4763 23.5238 20.7144C23.619 20.0953 23.7619 19.8572 23.8571 19.6191C23.8571 19.6191 23.8095 19.6191 23.6667 19.6191C23.2381 19.6191 22.9048 20.1906 22.9048 20.1906L23 19.6668" fill="#DCE5E5"/>
<path d="M27.1427 20.5715C27.1427 20.5715 27.5713 20.381 28.1903 20.381C28.5237 20.381 28.8094 20.4287 28.8094 20.7144C28.8094 20.9049 28.7618 20.9525 28.7618 20.9525C28.7618 20.9525 28.476 20.9525 28.3332 20.9525C27.5237 20.9525 26.6189 21.2858 26.6189 22.381C26.6189 23.2382 27.1903 23.4287 27.5237 23.4287C28.1903 23.4287 28.476 23.0001 28.5237 23.0001L28.476 23.381H29.3332L29.7141 20.762C29.7141 19.6668 28.7618 19.6191 28.3808 19.6191L27.1427 20.5715ZM29.0951 21.6668C29.0951 21.8096 28.5237 22.5715 27.9522 22.5715C27.6665 22.5715 27.5713 22.3334 27.5713 22.1906C27.5713 21.9525 27.7141 21.6191 28.4284 21.6191C28.6189 21.6668 29.0951 21.6668 29.0951 21.6668Z" fill="#DCE5E5"/>
<path d="M29.5237 23.3334H30.5237C30.8094 21.762 30.857 20.4763 31.5237 20.7144C31.6189 20.0953 31.7618 19.8572 31.857 19.6191C31.857 19.6191 31.8094 19.6191 31.6665 19.6191C31.238 19.6191 30.9046 20.1906 30.9046 20.1906L30.9999 19.6668" fill="#DCE5E5"/>
</g>
<defs>
<clipPath id="clip0_25_447">
<rect width="30" height="30" fill="white" transform="translate(6 6)"/>
</clipPath>
</defs>
</svg>
