<svg width="24" height="24" viewBox="0 0 24 24" fill="none" xmlns="http://www.w3.org/2000/svg">
<g clip-path="url(#clip0_25_28)">
<path d="M20.8723 14.775H15.4497C17.6064 11.9999 18.9817 9.14869 18.9313 7.24712C18.9314 2.89163 15.4072 0.28894 12 0.28894C8.59289 0.28894 5.0687 2.89163 5.0687 7.24712C5.01668 9.14691 6.39431 12.0019 8.55037 14.775H3.12766L0 23.7111H24L20.8723 14.775ZM19.8712 16.1859L20.7999 18.839L13.1182 17.5407C13.4344 17.1993 13.8504 16.7365 14.315 16.1859H19.8712ZM6.47963 7.24717C6.47963 3.77485 9.28643 1.69996 12 1.69996C15.4555 1.69996 17.5203 4.52041 17.5203 7.24717C17.6713 9.73204 14.1061 14.5116 12 16.67C9.89094 14.5081 6.32884 9.73171 6.47963 7.24717ZM10.9842 17.6508L6.82988 18.9759L4.95304 16.186H9.68508C10.2019 16.7983 10.658 17.3016 10.9842 17.6508ZM3.82887 17.0427L7.36577 22.3002H1.98872L3.82887 17.0427ZM9.06627 22.3002L7.65017 20.1952L12.0512 18.7914L21.3321 20.36L22.0112 22.3002H9.06627Z" fill="#9EA2A7"/>
<path d="M12 10.1897C13.6373 10.1897 14.9694 8.85767 14.9694 7.22032C14.8063 3.28097 9.19306 3.2821 9.03052 7.22032C9.03052 8.85762 10.3626 10.1897 12 10.1897ZM12 5.66185C12.8593 5.66185 13.5584 6.36099 13.5584 7.22032C13.4728 9.28778 10.5268 9.28721 10.4415 7.22032C10.4415 6.36095 11.1406 5.66185 12 5.66185Z" fill="#9EA2A7"/>
</g>
<defs>
<clipPath id="clip0_25_28">
<rect width="24" height="24" fill="white"/>
</clipPath>
</defs>
</svg>
