<svg width="42" height="42" viewBox="0 0 42 42" fill="none" xmlns="http://www.w3.org/2000/svg">
<rect width="42" height="42" rx="7" fill="#0D1722"/>
<g clip-path="url(#clip0_25_437)">
<path d="M33.6818 29.4545H7.3182C6.5932 29.4545 6 28.8613 6 28.1363V13.6363C6 12.9113 6.5932 12.3181 7.3182 12.3181H33.6819C34.4069 12.3181 35.0001 12.9113 35.0001 13.6363V28.1363C35 28.8613 34.4068 29.4545 33.6818 29.4545Z" fill="#0E9347"/>
<path d="M30.3863 24.1818C28.8703 24.1818 27.4863 24.9068 26.6953 26.0931C26.0363 25.7636 25.3113 25.5 24.4545 25.5C22.1477 25.5 20.2363 27.2136 19.9067 29.4545H33.6817C34.3408 29.4545 34.8681 28.9932 34.9999 28.334C34.7363 26.0272 32.759 24.1818 30.3863 24.1818Z" fill="#0D8944"/>
<path d="M31.0455 28.1363H9.95458C9.95458 26.6863 8.76824 25.4999 7.31824 25.4999V16.2727C8.76824 16.2727 9.95458 15.0864 9.95458 13.6364H31.0455C31.0455 15.0864 32.2318 16.2727 33.6818 16.2727V25.4999C32.2318 25.4999 31.0455 26.6863 31.0455 28.1363Z" fill="#3BB54A"/>
<path d="M20.4999 26.8181C23.412 26.8181 25.7726 24.1623 25.7726 20.8863C25.7726 17.6102 23.412 14.9545 20.4999 14.9545C17.5879 14.9545 15.2272 17.6102 15.2272 20.8863C15.2272 24.1623 17.5879 26.8181 20.4999 26.8181Z" fill="#0E9347"/>
<path d="M12.5909 22.2045C13.3189 22.2045 13.9091 21.6143 13.9091 20.8863C13.9091 20.1583 13.3189 19.5681 12.5909 19.5681C11.8629 19.5681 11.2727 20.1583 11.2727 20.8863C11.2727 21.6143 11.8629 22.2045 12.5909 22.2045Z" fill="#0E9347"/>
<path d="M28.4091 22.2045C29.1372 22.2045 29.7273 21.6143 29.7273 20.8863C29.7273 20.1583 29.1372 19.5681 28.4091 19.5681C27.6811 19.5681 27.0909 20.1583 27.0909 20.8863C27.0909 21.6143 27.6811 22.2045 28.4091 22.2045Z" fill="#0E9347"/>
<path d="M21.1591 20.2272H19.8409C19.4454 20.2272 19.1818 19.9636 19.1818 19.5682C19.1818 19.1727 19.4455 18.9091 19.8409 18.9091H21.8181C22.2136 18.9091 22.4772 18.6454 22.4772 18.25C22.4772 17.8546 22.2135 17.591 21.8181 17.591H21.1591C21.1591 17.1955 20.8954 16.9319 20.5 16.9319C20.1045 16.9319 19.8409 17.1955 19.8409 17.591C18.7205 17.591 17.8636 18.4478 17.8636 19.5682C17.8636 20.6887 18.7205 21.5455 19.8409 21.5455H21.1591C21.5546 21.5455 21.8182 21.8092 21.8182 22.2046C21.8182 22.6 21.5545 22.8636 21.1591 22.8636H19.1818C18.7864 22.8636 18.5228 23.1273 18.5228 23.5227C18.5228 23.9182 18.7864 24.1818 19.1818 24.1818H19.8409C19.8409 24.5772 20.1046 24.8408 20.5 24.8408C20.8955 24.8408 21.1591 24.5772 21.1591 24.1818C22.2795 24.1818 23.1363 23.325 23.1363 22.2045C23.1363 21.084 22.2795 20.2272 21.1591 20.2272Z" fill="#89C763"/>
</g>
<defs>
<clipPath id="clip0_25_437">
<rect width="29" height="29" fill="white" transform="translate(6 11)"/>
</clipPath>
</defs>
</svg>
