<svg width="42" height="42" viewBox="0 0 42 42" fill="none" xmlns="http://www.w3.org/2000/svg">
<rect x="1" y="1" width="40" height="40" rx="14" fill="#0D1722" stroke="#0D1722"/>
<path d="M16.8176 16.4688V25H15.3469L11.5207 18.8887V25H10.05V16.4688H11.5207L15.3586 22.5918V16.4688H16.8176ZM17.8594 21.9004V21.7656C17.8594 21.3086 17.9258 20.8848 18.0586 20.4941C18.1914 20.0996 18.3828 19.7578 18.6328 19.4688C18.8867 19.1758 19.1953 18.9492 19.5586 18.7891C19.9258 18.625 20.3398 18.543 20.8008 18.543C21.2656 18.543 21.6797 18.625 22.043 18.7891C22.4102 18.9492 22.7207 19.1758 22.9746 19.4688C23.2285 19.7578 23.4219 20.0996 23.5547 20.4941C23.6875 20.8848 23.7539 21.3086 23.7539 21.7656V21.9004C23.7539 22.3574 23.6875 22.7812 23.5547 23.1719C23.4219 23.5625 23.2285 23.9043 22.9746 24.1973C22.7207 24.4863 22.4121 24.7129 22.0488 24.877C21.6855 25.0371 21.2734 25.1172 20.8125 25.1172C20.3477 25.1172 19.9316 25.0371 19.5645 24.877C19.2012 24.7129 18.8926 24.4863 18.6387 24.1973C18.3848 23.9043 18.1914 23.5625 18.0586 23.1719C17.9258 22.7812 17.8594 22.3574 17.8594 21.9004ZM19.2715 21.7656V21.9004C19.2715 22.1855 19.3008 22.4551 19.3594 22.709C19.418 22.9629 19.5098 23.1855 19.6348 23.377C19.7598 23.5684 19.9199 23.7188 20.1152 23.8281C20.3105 23.9375 20.543 23.9922 20.8125 23.9922C21.0742 23.9922 21.3008 23.9375 21.4922 23.8281C21.6875 23.7188 21.8477 23.5684 21.9727 23.377C22.0977 23.1855 22.1895 22.9629 22.248 22.709C22.3105 22.4551 22.3418 22.1855 22.3418 21.9004V21.7656C22.3418 21.4844 22.3105 21.2188 22.248 20.9688C22.1895 20.7148 22.0957 20.4902 21.9668 20.2949C21.8418 20.0996 21.6816 19.9473 21.4863 19.8379C21.2949 19.7246 21.0664 19.668 20.8008 19.668C20.5352 19.668 20.3047 19.7246 20.1094 19.8379C19.918 19.9473 19.7598 20.0996 19.6348 20.2949C19.5098 20.4902 19.418 20.7148 19.3594 20.9688C19.3008 21.2188 19.2715 21.4844 19.2715 21.7656ZM26.3602 23.5938L27.825 18.6602H28.7273L28.4812 20.1367L27.0047 25H26.1961L26.3602 23.5938ZM25.4988 18.6602L26.6414 23.6172L26.7352 25H25.8328L24.116 18.6602H25.4988ZM30.0984 23.5586L31.2059 18.6602H32.5828L30.8719 25H29.9695L30.0984 23.5586ZM28.8797 18.6602L30.327 23.5352L30.5086 25H29.7L28.2059 20.1309L27.9598 18.6602H28.8797Z" fill="white"/>
</svg>
