<svg width="126" height="130" viewBox="0 0 126 130" fill="none" xmlns="http://www.w3.org/2000/svg">
<path d="M11.0939 129H6.09V113.318H0.648594V109.271H16.5353V113.318H11.0939V129ZM21.0805 125.883C21.837 125.883 22.4841 125.673 23.0219 125.254C23.5688 124.835 23.8422 124.301 23.8422 123.654V122.629L21.1352 122.807C20.5063 122.852 20.0186 123.016 19.6723 123.299C19.3259 123.572 19.1527 123.928 19.1527 124.365C19.1527 124.83 19.3259 125.199 19.6723 125.473C20.0277 125.746 20.4971 125.883 21.0805 125.883ZM19.3578 129.219C17.9542 129.219 16.7693 128.795 15.8031 127.947C14.837 127.1 14.3539 126.015 14.3539 124.693C14.3539 123.308 14.8689 122.228 15.8988 121.453C16.9288 120.678 18.4145 120.232 20.3559 120.113L23.8422 119.908V119.061C23.8422 118.477 23.6508 118.026 23.268 117.707C22.8852 117.379 22.3702 117.215 21.723 117.215C21.085 117.215 20.5609 117.365 20.1508 117.666C19.7497 117.958 19.5128 118.34 19.4398 118.814H15.0785C15.1514 117.274 15.8031 116.048 17.0336 115.137C18.2641 114.216 19.9092 113.756 21.9691 113.756C23.9561 113.756 25.5557 114.221 26.768 115.15C27.9802 116.071 28.5863 117.283 28.5863 118.787V129H23.8695V126.881H23.7738C23.3819 127.61 22.7803 128.184 21.9691 128.604C21.1579 129.014 20.2875 129.219 19.3578 129.219ZM37.233 124.092H37.1373L34.7448 129H29.7135L34.1842 121.604L29.7272 114.111H35.1959L37.4245 118.869H37.5202L39.7077 114.111H44.944L40.4733 121.494L44.9303 129H39.694L37.233 124.092ZM46.1122 129V114.111H50.952V129H46.1122ZM50.2958 112.225C49.8218 112.68 49.2339 112.908 48.5321 112.908C47.8303 112.908 47.2378 112.68 46.7548 112.225C46.2808 111.769 46.0438 111.204 46.0438 110.529C46.0438 109.864 46.2808 109.303 46.7548 108.848C47.2378 108.392 47.8303 108.164 48.5321 108.164C49.2339 108.164 49.8218 108.392 50.2958 108.848C50.7697 109.294 51.0067 109.855 51.0067 110.529C51.0067 111.204 50.7697 111.769 50.2958 112.225Z" fill="white"/>
<path d="M75.0616 129H70.6456V116.682H70.5499L65.6691 128.795H62.798L57.9308 116.682H57.8214V129H53.4054V109.271H59.2023L64.1788 121.945H64.2882L69.2648 109.271H75.0616V129ZM90.2162 127.305C88.8581 128.672 86.9987 129.355 84.638 129.355C82.2774 129.355 80.418 128.672 79.0599 127.305C77.7018 125.928 77.0228 124.01 77.0228 121.549C77.0228 119.133 77.711 117.233 79.0873 115.848C80.4636 114.453 82.3138 113.756 84.638 113.756C86.9805 113.756 88.8353 114.449 90.2025 115.834C91.5697 117.219 92.2533 119.124 92.2533 121.549C92.2533 124.019 91.5742 125.938 90.2162 127.305ZM82.6556 124.693C83.1387 125.432 83.7995 125.801 84.638 125.801C85.4766 125.801 86.1374 125.432 86.6205 124.693C87.1035 123.955 87.3451 122.911 87.3451 121.562C87.3451 120.232 87.099 119.193 86.6068 118.445C86.1237 117.689 85.4675 117.311 84.638 117.311C83.8086 117.311 83.1524 117.689 82.6693 118.445C82.1862 119.193 81.9447 120.232 81.9447 121.562C81.9447 122.911 82.1817 123.955 82.6556 124.693ZM99.3687 129.219C97.5185 129.219 96.0647 128.54 95.0074 127.182C93.9592 125.814 93.4352 123.928 93.4352 121.521C93.4352 119.143 93.9684 117.279 95.0348 115.93C96.1012 114.572 97.5641 113.893 99.4234 113.893C100.481 113.893 101.401 114.152 102.185 114.672C102.978 115.191 103.543 115.88 103.88 116.736H103.976V109.271H108.816V129H104.004V126.443H103.908C103.598 127.255 103.033 127.92 102.212 128.439C101.401 128.959 100.453 129.219 99.3687 129.219ZM103.238 118.732C102.737 118.031 102.053 117.68 101.187 117.68C100.321 117.68 99.6376 118.026 99.1363 118.719C98.6441 119.411 98.398 120.359 98.398 121.562C98.398 122.766 98.6441 123.714 99.1363 124.406C99.6285 125.09 100.312 125.432 101.187 125.432C102.062 125.432 102.746 125.09 103.238 124.406C103.739 123.723 103.99 122.775 103.99 121.562C103.99 120.368 103.739 119.425 103.238 118.732ZM117.996 117.201C117.258 117.201 116.633 117.452 116.123 117.953C115.622 118.445 115.339 119.079 115.275 119.854H120.689C120.644 119.061 120.375 118.423 119.883 117.939C119.39 117.447 118.762 117.201 117.996 117.201ZM120.799 124.297H125.174C124.937 125.837 124.18 127.068 122.904 127.988C121.628 128.9 120.019 129.355 118.078 129.355C115.708 129.355 113.853 128.672 112.514 127.305C111.174 125.928 110.504 124.037 110.504 121.631C110.504 119.225 111.169 117.311 112.5 115.889C113.84 114.467 115.644 113.756 117.914 113.756C120.156 113.756 121.938 114.435 123.26 115.793C124.59 117.151 125.256 118.969 125.256 121.248V122.615H115.207V122.916C115.207 123.809 115.476 124.534 116.014 125.09C116.56 125.646 117.271 125.924 118.146 125.924C118.793 125.924 119.354 125.778 119.828 125.486C120.302 125.195 120.625 124.798 120.799 124.297Z" fill="#2DBB54"/>
<circle cx="48.5" cy="109.5" r="3.5" fill="#2DBB54"/>
<circle cx="63" cy="41" r="41" fill="white"/>
<g clip-path="url(#clip0_4_645)">
<path d="M70 53L82 40.9999L70 29L70 53Z" fill="#2DBB54"/>
</g>
<rect x="55" y="37" width="8" height="8" fill="#0D1722"/>
<rect x="42" y="37" width="8" height="8" fill="#0D1722"/>
<defs>
<clipPath id="clip0_4_645">
<rect width="24" height="24" fill="white" transform="translate(64 53) rotate(-90)"/>
</clipPath>
</defs>
</svg>
